<?xml version="1.0" standalone="no"?><!-- Generator: Gravit.io --><svg xmlns="http://www.w3.org/2000/svg" xmlns:xlink="http://www.w3.org/1999/xlink" style="isolation:isolate" viewBox="315 372.482 360 479.201" width="360" height="479.201"><g id="25parkplace-body"><path d=" M 565 580.328 L 565 851.682 L 675 788.174 L 675 516.819 L 565 580.328 Z " fill="rgb(232,232,232)"/><path d=" M 565 580.328 L 565 851.682 L 315 707.345 L 315 435.99 L 565 580.328 Z " fill="rgb(209,209,209)"/><path d=" M 315 435.99 L 425 372.482 L 675 516.819 L 565 580.328 L 315 435.99 Z " fill="rgb(249,249,249)"/><g id="windows-left"><path d=" M 559 639.35 L 551.5 635.02 L 551.5 658.114 L 559 662.444 L 559 639.35 Z " fill="rgb(116,116,116)"/><path d=" M 499 604.709 L 491.5 600.379 L 491.5 623.473 L 499 627.803 L 499 604.709 Z " fill="rgb(116,116,116)"/><path d=" M 529 622.03 L 521.5 617.699 L 521.5 640.793 L 529 645.124 L 529 622.03 Z " fill="rgb(116,116,116)"/><path d=" M 469 587.389 L 461.5 583.058 L 461.5 606.152 L 469 610.483 L 469 587.389 Z " fill="rgb(116,116,116)"/><path d=" M 549 633.577 L 541.5 629.246 L 541.5 652.341 L 549 656.671 L 549 633.577 Z " fill="rgb(116,116,116)"/><path d=" M 489 598.936 L 481.5 594.605 L 481.5 617.699 L 489 622.03 L 489 598.936 Z " fill="rgb(116,116,116)"/><path d=" M 519 616.256 L 511.5 611.926 L 511.5 635.02 L 519 639.35 L 519 616.256 Z " fill="rgb(116,116,116)"/><path d=" M 459 581.615 L 451.5 577.285 L 451.5 600.379 L 459 604.709 L 459 581.615 Z " fill="rgb(116,116,116)"/><path d=" M 539 627.803 L 531.5 623.473 L 531.5 646.567 L 539 650.897 L 539 627.803 Z " fill="rgb(116,116,116)"/><path d=" M 479 593.162 L 471.5 588.832 L 471.5 611.926 L 479 616.256 L 479 593.162 Z " fill="rgb(116,116,116)"/><path d=" M 509 610.483 L 501.5 606.152 L 501.5 629.246 L 509 633.577 L 509 610.483 Z " fill="rgb(116,116,116)"/><path d=" M 449 575.842 L 441.5 571.511 L 441.5 594.605 L 449 598.936 L 449 575.842 Z " fill="rgb(116,116,116)"/><path d=" M 389 541.201 L 381.5 536.87 L 381.5 559.964 L 389 564.295 L 389 541.201 Z " fill="rgb(116,116,116)"/><path d=" M 419 558.521 L 411.5 554.191 L 411.5 577.285 L 419 581.615 L 419 558.521 Z " fill="rgb(116,116,116)"/><path d=" M 359 523.88 L 351.5 519.55 L 351.5 542.644 L 359 546.974 L 359 523.88 Z " fill="rgb(116,116,116)"/><path d=" M 439 570.068 L 431.5 565.738 L 431.5 588.832 L 439 593.162 L 439 570.068 Z " fill="rgb(116,116,116)"/><path d=" M 379 535.427 L 371.5 531.097 L 371.5 554.191 L 379 558.521 L 379 535.427 Z " fill="rgb(116,116,116)"/><path d=" M 409 552.748 L 401.5 548.417 L 401.5 571.511 L 409 575.842 L 409 552.748 Z " fill="rgb(116,116,116)"/><path d=" M 349 518.107 L 341.5 513.776 L 341.5 536.87 L 349 541.201 L 349 518.107 Z " fill="rgb(116,116,116)"/><path d=" M 429 564.295 L 421.5 559.964 L 421.5 583.058 L 429 587.389 L 429 564.295 Z " fill="rgb(116,116,116)"/><path d=" M 369 529.654 L 361.5 525.323 L 361.5 548.417 L 369 552.748 L 369 529.654 Z " fill="rgb(116,116,116)"/><path d=" M 399 546.974 L 391.5 542.644 L 391.5 565.738 L 399 570.068 L 399 546.974 Z " fill="rgb(116,116,116)"/><path d=" M 339 512.333 L 331.5 508.003 L 331.5 531.097 L 339 535.427 L 339 512.333 Z " fill="rgb(116,116,116)"/><path d=" M 329 506.56 L 321.5 502.229 L 321.5 525.323 L 329 529.654 L 329 506.56 Z " fill="rgb(116,116,116)"/><path d=" M 559 580.823 L 551.5 576.493 L 551.5 599.587 L 559 603.917 L 559 580.823 Z " fill="rgb(116,116,116)"/><path d=" M 499 546.182 L 491.5 541.852 L 491.5 564.946 L 499 569.276 L 499 546.182 Z " fill="rgb(116,116,116)"/><path d=" M 529 563.503 L 521.5 559.173 L 521.5 582.267 L 529 586.597 L 529 563.503 Z " fill="rgb(116,116,116)"/><path d=" M 469 528.862 L 461.5 524.532 L 461.5 547.626 L 469 551.956 L 469 528.862 Z " fill="rgb(116,116,116)"/><path d=" M 549 575.05 L 541.5 570.72 L 541.5 593.814 L 549 598.144 L 549 575.05 Z " fill="rgb(116,116,116)"/><path d=" M 489 540.409 L 481.5 536.079 L 481.5 559.173 L 489 563.503 L 489 540.409 Z " fill="rgb(116,116,116)"/><path d=" M 519 557.729 L 511.5 553.399 L 511.5 576.493 L 519 580.823 L 519 557.729 Z " fill="rgb(116,116,116)"/><path d=" M 459 523.088 L 451.5 518.758 L 451.5 541.852 L 459 546.182 L 459 523.088 Z " fill="rgb(116,116,116)"/><path d=" M 539 569.276 L 531.5 564.946 L 531.5 588.04 L 539 592.37 L 539 569.276 Z " fill="rgb(116,116,116)"/><path d=" M 479 534.635 L 471.5 530.305 L 471.5 553.399 L 479 557.729 L 479 534.635 Z " fill="rgb(116,116,116)"/><path d=" M 509 551.956 L 501.5 547.626 L 501.5 570.72 L 509 575.05 L 509 551.956 Z " fill="rgb(116,116,116)"/><path d=" M 449 517.315 L 441.5 512.985 L 441.5 536.079 L 449 540.409 L 449 517.315 Z " fill="rgb(116,116,116)"/><path d=" M 389 482.674 L 381.5 478.344 L 381.5 501.438 L 389 505.768 L 389 482.674 Z " fill="rgb(116,116,116)"/><path d=" M 419 499.994 L 411.5 495.664 L 411.5 518.758 L 419 523.088 L 419 499.994 Z " fill="rgb(116,116,116)"/><path d=" M 359 465.353 L 351.5 461.023 L 351.5 484.117 L 359 488.447 L 359 465.353 Z " fill="rgb(116,116,116)"/><path d=" M 439 511.541 L 431.5 507.211 L 431.5 530.305 L 439 534.635 L 439 511.541 Z " fill="rgb(116,116,116)"/><path d=" M 379 476.9 L 371.5 472.57 L 371.5 495.664 L 379 499.994 L 379 476.9 Z " fill="rgb(116,116,116)"/><path d=" M 409 494.221 L 401.5 489.891 L 401.5 512.985 L 409 517.315 L 409 494.221 Z " fill="rgb(116,116,116)"/><path d=" M 349 459.58 L 341.5 455.25 L 341.5 478.344 L 349 482.674 L 349 459.58 Z " fill="rgb(116,116,116)"/><path d=" M 429 505.768 L 421.5 501.438 L 421.5 524.532 L 429 528.862 L 429 505.768 Z " fill="rgb(116,116,116)"/><path d=" M 369 471.127 L 361.5 466.797 L 361.5 489.891 L 369 494.221 L 369 471.127 Z " fill="rgb(116,116,116)"/><path d=" M 399 488.447 L 391.5 484.117 L 391.5 507.211 L 399 511.541 L 399 488.447 Z " fill="rgb(116,116,116)"/><path d=" M 339 453.806 L 331.5 449.476 L 331.5 472.57 L 339 476.9 L 339 453.806 Z " fill="rgb(116,116,116)"/><path d=" M 329 448.033 L 321.5 443.702 L 321.5 466.797 L 329 471.127 L 329 448.033 Z " fill="rgb(116,116,116)"/><path d=" M 559 610.087 L 551.5 605.757 L 551.5 628.851 L 559 633.181 L 559 610.087 Z " fill="rgb(116,116,116)"/><path d=" M 499 575.446 L 491.5 571.115 L 491.5 594.21 L 499 598.54 L 499 575.446 Z " fill="rgb(116,116,116)"/><path d=" M 529 592.766 L 521.5 588.436 L 521.5 611.53 L 529 615.86 L 529 592.766 Z " fill="rgb(116,116,116)"/><path d=" M 469 558.125 L 461.5 553.795 L 461.5 576.889 L 469 581.219 L 469 558.125 Z " fill="rgb(116,116,116)"/><path d=" M 549 604.313 L 541.5 599.983 L 541.5 623.077 L 549 627.407 L 549 604.313 Z " fill="rgb(116,116,116)"/><path d=" M 489 569.672 L 481.5 565.342 L 481.5 588.436 L 489 592.766 L 489 569.672 Z " fill="rgb(116,116,116)"/><path d=" M 519 586.993 L 511.5 582.662 L 511.5 605.757 L 519 610.087 L 519 586.993 Z " fill="rgb(116,116,116)"/><path d=" M 459 552.352 L 451.5 548.021 L 451.5 571.115 L 459 575.446 L 459 552.352 Z " fill="rgb(116,116,116)"/><path d=" M 539 598.54 L 531.5 594.21 L 531.5 617.304 L 539 621.634 L 539 598.54 Z " fill="rgb(116,116,116)"/><path d=" M 479 563.899 L 471.5 559.568 L 471.5 582.663 L 479 586.993 L 479 563.899 Z " fill="rgb(116,116,116)"/><path d=" M 509 581.219 L 501.5 576.889 L 501.5 599.983 L 509 604.313 L 509 581.219 Z " fill="rgb(116,116,116)"/><path d=" M 449 546.578 L 441.5 542.248 L 441.5 565.342 L 449 569.672 L 449 546.578 Z " fill="rgb(116,116,116)"/><path d=" M 389 511.937 L 381.5 507.607 L 381.5 530.701 L 389 535.031 L 389 511.937 Z " fill="rgb(116,116,116)"/><path d=" M 419 529.258 L 411.5 524.928 L 411.5 548.022 L 419 552.352 L 419 529.258 Z " fill="rgb(116,116,116)"/><path d=" M 359 494.617 L 351.5 490.286 L 351.5 513.38 L 359 517.711 L 359 494.617 Z " fill="rgb(116,116,116)"/><path d=" M 439 540.805 L 431.5 536.474 L 431.5 559.569 L 439 563.899 L 439 540.805 Z " fill="rgb(116,116,116)"/><path d=" M 379 506.164 L 371.5 501.833 L 371.5 524.928 L 379 529.258 L 379 506.164 Z " fill="rgb(116,116,116)"/><path d=" M 409 523.484 L 401.5 519.154 L 401.5 542.248 L 409 546.578 L 409 523.484 Z " fill="rgb(116,116,116)"/><path d=" M 349 488.843 L 341.5 484.513 L 341.5 507.607 L 349 511.937 L 349 488.843 Z " fill="rgb(116,116,116)"/><path d=" M 429 535.031 L 421.5 530.701 L 421.5 553.795 L 429 558.125 L 429 535.031 Z " fill="rgb(116,116,116)"/><path d=" M 369 500.39 L 361.5 496.06 L 361.5 519.154 L 369 523.484 L 369 500.39 Z " fill="rgb(116,116,116)"/><path d=" M 399 517.711 L 391.5 513.38 L 391.5 536.474 L 399 540.805 L 399 517.711 Z " fill="rgb(116,116,116)"/><path d=" M 339 483.07 L 331.5 478.739 L 331.5 501.833 L 339 506.164 L 339 483.07 Z " fill="rgb(116,116,116)"/><path d=" M 329 477.296 L 321.5 472.966 L 321.5 496.06 L 329 500.39 L 329 477.296 Z " fill="rgb(116,116,116)"/><path d=" M 559 668.614 L 551.5 664.283 L 551.5 687.377 L 559 691.708 L 559 668.614 Z " fill="rgb(116,116,116)"/><path d=" M 499 633.973 L 491.5 629.642 L 491.5 652.736 L 499 657.067 L 499 633.973 Z " fill="rgb(116,116,116)"/><path d=" M 529 651.293 L 521.5 646.963 L 521.5 670.057 L 529 674.387 L 529 651.293 Z " fill="rgb(116,116,116)"/><path d=" M 469 616.652 L 461.5 612.322 L 461.5 635.416 L 469 639.746 L 469 616.652 Z " fill="rgb(116,116,116)"/><path d=" M 549 662.84 L 541.5 658.51 L 541.5 681.604 L 549 685.934 L 549 662.84 Z " fill="rgb(116,116,116)"/><path d=" M 489 628.199 L 481.5 623.869 L 481.5 646.963 L 489 651.293 L 489 628.199 Z " fill="rgb(116,116,116)"/><path d=" M 519 645.52 L 511.5 641.189 L 511.5 664.283 L 519 668.614 L 519 645.52 Z " fill="rgb(116,116,116)"/><path d=" M 459 610.879 L 451.5 606.548 L 451.5 629.642 L 459 633.973 L 459 610.879 Z " fill="rgb(116,116,116)"/><path d=" M 539 657.067 L 531.5 652.736 L 531.5 675.83 L 539 680.161 L 539 657.067 Z " fill="rgb(116,116,116)"/><path d=" M 479 622.426 L 471.5 618.095 L 471.5 641.189 L 479 645.52 L 479 622.426 Z " fill="rgb(116,116,116)"/><path d=" M 509 639.746 L 501.5 635.416 L 501.5 658.51 L 509 662.84 L 509 639.746 Z " fill="rgb(116,116,116)"/><path d=" M 449 605.105 L 441.5 600.775 L 441.5 623.869 L 449 628.199 L 449 605.105 Z " fill="rgb(116,116,116)"/><path d=" M 389 570.464 L 381.5 566.134 L 381.5 589.228 L 389 593.558 L 389 570.464 Z " fill="rgb(116,116,116)"/><path d=" M 419 587.785 L 411.5 583.454 L 411.5 606.548 L 419 610.879 L 419 587.785 Z " fill="rgb(116,116,116)"/><path d=" M 359 553.144 L 351.5 548.813 L 351.5 571.907 L 359 576.238 L 359 553.144 Z " fill="rgb(116,116,116)"/><path d=" M 439 599.332 L 431.5 595.001 L 431.5 618.095 L 439 622.426 L 439 599.332 Z " fill="rgb(116,116,116)"/><path d=" M 379 564.691 L 371.5 560.36 L 371.5 583.454 L 379 587.785 L 379 564.691 Z " fill="rgb(116,116,116)"/><path d=" M 409 582.011 L 401.5 577.681 L 401.5 600.775 L 409 605.105 L 409 582.011 Z " fill="rgb(116,116,116)"/><path d=" M 349 547.37 L 341.5 543.04 L 341.5 566.134 L 349 570.464 L 349 547.37 Z " fill="rgb(116,116,116)"/><path d=" M 429 593.558 L 421.5 589.228 L 421.5 612.322 L 429 616.652 L 429 593.558 Z " fill="rgb(116,116,116)"/><path d=" M 369 558.917 L 361.5 554.587 L 361.5 577.681 L 369 582.011 L 369 558.917 Z " fill="rgb(116,116,116)"/><path d=" M 399 576.238 L 391.5 571.907 L 391.5 595.001 L 399 599.332 L 399 576.238 Z " fill="rgb(116,116,116)"/><path d=" M 339 541.597 L 331.5 537.266 L 331.5 560.36 L 339 564.691 L 339 541.597 Z " fill="rgb(116,116,116)"/><path d=" M 329 535.823 L 321.5 531.493 L 321.5 554.587 L 329 558.917 L 329 535.823 Z " fill="rgb(116,116,116)"/><path d=" M 559 697.877 L 551.5 693.547 L 551.5 716.641 L 559 720.971 L 559 697.877 Z " fill="rgb(116,116,116)"/><path d=" M 499 663.236 L 491.5 658.906 L 491.5 682 L 499 686.33 L 499 663.236 Z " fill="rgb(116,116,116)"/><path d=" M 529 680.557 L 521.5 676.226 L 521.5 699.32 L 529 703.651 L 529 680.557 Z " fill="rgb(116,116,116)"/><path d=" M 469 645.916 L 461.5 641.585 L 461.5 664.679 L 469 669.01 L 469 645.916 Z " fill="rgb(116,116,116)"/><path d=" M 549 692.104 L 541.5 687.773 L 541.5 710.867 L 549 715.198 L 549 692.104 Z " fill="rgb(116,116,116)"/><path d=" M 489 657.463 L 481.5 653.132 L 481.5 676.226 L 489 680.557 L 489 657.463 Z " fill="rgb(116,116,116)"/><path d=" M 519 674.783 L 511.5 670.453 L 511.5 693.547 L 519 697.877 L 519 674.783 Z " fill="rgb(116,116,116)"/><path d=" M 459 640.142 L 451.5 635.812 L 451.5 658.906 L 459 663.236 L 459 640.142 Z " fill="rgb(116,116,116)"/><path d=" M 539 686.33 L 531.5 682 L 531.5 705.094 L 539 709.424 L 539 686.33 Z " fill="rgb(116,116,116)"/><path d=" M 479 651.689 L 471.5 647.359 L 471.5 670.453 L 479 674.783 L 479 651.689 Z " fill="rgb(116,116,116)"/><path d=" M 509 669.01 L 501.5 664.679 L 501.5 687.773 L 509 692.104 L 509 669.01 Z " fill="rgb(116,116,116)"/><path d=" M 449 634.369 L 441.5 630.038 L 441.5 653.132 L 449 657.463 L 449 634.369 Z " fill="rgb(116,116,116)"/><path d=" M 389 599.728 L 381.5 595.397 L 381.5 618.491 L 389 622.822 L 389 599.728 Z " fill="rgb(116,116,116)"/><path d=" M 419 617.048 L 411.5 612.718 L 411.5 635.812 L 419 640.142 L 419 617.048 Z " fill="rgb(116,116,116)"/><path d=" M 359 582.407 L 351.5 578.077 L 351.5 601.171 L 359 605.501 L 359 582.407 Z " fill="rgb(116,116,116)"/><path d=" M 439 628.595 L 431.5 624.265 L 431.5 647.359 L 439 651.689 L 439 628.595 Z " fill="rgb(116,116,116)"/><path d=" M 379 593.954 L 371.5 589.624 L 371.5 612.718 L 379 617.048 L 379 593.954 Z " fill="rgb(116,116,116)"/><path d=" M 409 611.275 L 401.5 606.944 L 401.5 630.038 L 409 634.369 L 409 611.275 Z " fill="rgb(116,116,116)"/><path d=" M 349 576.634 L 341.5 572.303 L 341.5 595.397 L 349 599.728 L 349 576.634 Z " fill="rgb(116,116,116)"/><path d=" M 429 622.822 L 421.5 618.491 L 421.5 641.585 L 429 645.916 L 429 622.822 Z " fill="rgb(116,116,116)"/><path d=" M 369 588.181 L 361.5 583.85 L 361.5 606.944 L 369 611.275 L 369 588.181 Z " fill="rgb(116,116,116)"/><path d=" M 399 605.501 L 391.5 601.171 L 391.5 624.265 L 399 628.595 L 399 605.501 Z " fill="rgb(116,116,116)"/><path d=" M 339 570.86 L 331.5 566.53 L 331.5 589.624 L 339 593.954 L 339 570.86 Z " fill="rgb(116,116,116)"/><path d=" M 329 565.087 L 321.5 560.756 L 321.5 583.85 L 329 588.181 L 329 565.087 Z " fill="rgb(116,116,116)"/><path d=" M 559 727.141 L 551.5 722.81 L 551.5 745.904 L 559 750.235 L 559 727.141 Z " fill="rgb(116,116,116)"/><path d=" M 499 692.5 L 491.5 688.169 L 491.5 711.263 L 499 715.594 L 499 692.5 Z " fill="rgb(116,116,116)"/><path d=" M 529 709.82 L 521.5 705.49 L 521.5 728.584 L 529 732.914 L 529 709.82 Z " fill="rgb(116,116,116)"/><path d=" M 469 675.179 L 461.5 670.849 L 461.5 693.943 L 469 698.273 L 469 675.179 Z " fill="rgb(116,116,116)"/><path d=" M 549 721.367 L 541.5 717.037 L 541.5 740.131 L 549 744.461 L 549 721.367 Z " fill="rgb(116,116,116)"/><path d=" M 489 686.726 L 481.5 682.396 L 481.5 705.49 L 489 709.82 L 489 686.726 Z " fill="rgb(116,116,116)"/><path d=" M 519 704.047 L 511.5 699.716 L 511.5 722.81 L 519 727.141 L 519 704.047 Z " fill="rgb(116,116,116)"/><path d=" M 459 669.405 L 451.5 665.075 L 451.5 688.169 L 459 692.5 L 459 669.405 Z " fill="rgb(116,116,116)"/><path d=" M 539 715.594 L 531.5 711.263 L 531.5 734.357 L 539 738.688 L 539 715.594 Z " fill="rgb(116,116,116)"/><path d=" M 479 680.953 L 471.5 676.622 L 471.5 699.716 L 479 704.047 L 479 680.953 Z " fill="rgb(116,116,116)"/><path d=" M 509 698.273 L 501.5 693.943 L 501.5 717.037 L 509 721.367 L 509 698.273 Z " fill="rgb(116,116,116)"/><path d=" M 449 663.632 L 441.5 659.302 L 441.5 682.396 L 449 686.726 L 449 663.632 Z " fill="rgb(116,116,116)"/><path d=" M 389 628.991 L 381.5 624.661 L 381.5 647.755 L 389 652.085 L 389 628.991 Z " fill="rgb(116,116,116)"/><path d=" M 419 646.312 L 411.5 641.981 L 411.5 665.075 L 419 669.406 L 419 646.312 Z " fill="rgb(116,116,116)"/><path d=" M 359 611.67 L 351.5 607.34 L 351.5 630.434 L 359 634.765 L 359 611.67 Z " fill="rgb(116,116,116)"/><path d=" M 439 657.859 L 431.5 653.528 L 431.5 676.622 L 439 680.953 L 439 657.859 Z " fill="rgb(116,116,116)"/><path d=" M 379 623.218 L 371.5 618.887 L 371.5 641.981 L 379 646.312 L 379 623.218 Z " fill="rgb(116,116,116)"/><path d=" M 409 640.538 L 401.5 636.208 L 401.5 659.302 L 409 663.632 L 409 640.538 Z " fill="rgb(116,116,116)"/><path d=" M 349 605.897 L 341.5 601.567 L 341.5 624.661 L 349 628.991 L 349 605.897 Z " fill="rgb(116,116,116)"/><path d=" M 429 652.085 L 421.5 647.755 L 421.5 670.849 L 429 675.179 L 429 652.085 Z " fill="rgb(116,116,116)"/><path d=" M 369 617.444 L 361.5 613.114 L 361.5 636.208 L 369 640.538 L 369 617.444 Z " fill="rgb(116,116,116)"/><path d=" M 399 634.765 L 391.5 630.434 L 391.5 653.528 L 399 657.859 L 399 634.765 Z " fill="rgb(116,116,116)"/><path d=" M 339 600.124 L 331.5 595.793 L 331.5 618.887 L 339 623.217 L 339 600.124 Z " fill="rgb(116,116,116)"/><path d=" M 329 594.35 L 321.5 590.02 L 321.5 613.114 L 329 617.444 L 329 594.35 Z " fill="rgb(116,116,116)"/><path d=" M 559 756.404 L 551.5 752.074 L 551.5 775.168 L 559 779.498 L 559 756.404 Z " fill="rgb(116,116,116)"/><path d=" M 499 721.763 L 491.5 717.433 L 491.5 740.527 L 499 744.857 L 499 721.763 Z " fill="rgb(116,116,116)"/><path d=" M 529 739.083 L 521.5 734.753 L 521.5 757.847 L 529 762.178 L 529 739.083 Z " fill="rgb(116,116,116)"/><path d=" M 469 704.442 L 461.5 700.112 L 461.5 723.206 L 469 727.536 L 469 704.442 Z " fill="rgb(116,116,116)"/><path d=" M 549 750.631 L 541.5 746.3 L 541.5 769.394 L 549 773.725 L 549 750.631 Z " fill="rgb(116,116,116)"/><path d=" M 489 715.989 L 481.5 711.659 L 481.5 734.753 L 489 739.083 L 489 715.989 Z " fill="rgb(116,116,116)"/><path d=" M 519 733.31 L 511.5 728.98 L 511.5 752.074 L 519 756.404 L 519 733.31 Z " fill="rgb(116,116,116)"/><path d=" M 459 698.669 L 451.5 694.339 L 451.5 717.433 L 459 721.763 L 459 698.669 Z " fill="rgb(116,116,116)"/><path d=" M 539 744.857 L 531.5 740.527 L 531.5 763.621 L 539 767.951 L 539 744.857 Z " fill="rgb(116,116,116)"/><path d=" M 479 710.216 L 471.5 705.886 L 471.5 728.98 L 479 733.31 L 479 710.216 Z " fill="rgb(116,116,116)"/><path d=" M 509 727.537 L 501.5 723.206 L 501.5 746.3 L 509 750.631 L 509 727.537 Z " fill="rgb(116,116,116)"/><path d=" M 449 692.896 L 441.5 688.565 L 441.5 711.659 L 449 715.989 L 449 692.896 Z " fill="rgb(116,116,116)"/><path d=" M 389 658.254 L 381.5 653.924 L 381.5 677.018 L 389 681.349 L 389 658.254 Z " fill="rgb(116,116,116)"/><path d=" M 419 675.575 L 411.5 671.245 L 411.5 694.339 L 419 698.669 L 419 675.575 Z " fill="rgb(116,116,116)"/><path d=" M 359 640.934 L 351.5 636.604 L 351.5 659.698 L 359 664.028 L 359 640.934 Z " fill="rgb(116,116,116)"/><path d=" M 439 687.122 L 431.5 682.792 L 431.5 705.886 L 439 710.216 L 439 687.122 Z " fill="rgb(116,116,116)"/><path d=" M 379 652.481 L 371.5 648.151 L 371.5 671.245 L 379 675.575 L 379 652.481 Z " fill="rgb(116,116,116)"/><path d=" M 409 669.801 L 401.5 665.471 L 401.5 688.565 L 409 692.896 L 409 669.801 Z " fill="rgb(116,116,116)"/><path d=" M 349 635.16 L 341.5 630.83 L 341.5 653.924 L 349 658.254 L 349 635.16 Z " fill="rgb(116,116,116)"/><path d=" M 429 681.348 L 421.5 677.018 L 421.5 700.112 L 429 704.443 L 429 681.348 Z " fill="rgb(116,116,116)"/><path d=" M 369 646.707 L 361.5 642.377 L 361.5 665.471 L 369 669.801 L 369 646.707 Z " fill="rgb(116,116,116)"/><path d=" M 399 664.028 L 391.5 659.698 L 391.5 682.792 L 399 687.122 L 399 664.028 Z " fill="rgb(116,116,116)"/><path d=" M 339 629.387 L 331.5 625.057 L 331.5 648.151 L 339 652.481 L 339 629.387 Z " fill="rgb(116,116,116)"/><path d=" M 329 623.613 L 321.5 619.283 L 321.5 642.377 L 329 646.707 L 329 623.613 Z " fill="rgb(116,116,116)"/><path d=" M 559 785.667 L 551.5 781.337 L 551.5 804.431 L 559 808.761 L 559 785.667 Z " fill="rgb(116,116,116)"/><path d=" M 499 751.026 L 491.5 746.696 L 491.5 769.79 L 499 774.12 L 499 751.026 Z " fill="rgb(116,116,116)"/><path d=" M 529 768.347 L 521.5 764.017 L 521.5 787.111 L 529 791.441 L 529 768.347 Z " fill="rgb(116,116,116)"/><path d=" M 469 733.706 L 461.5 729.376 L 461.5 752.47 L 469 756.8 L 469 733.706 Z " fill="rgb(116,116,116)"/><path d=" M 549 779.894 L 541.5 775.564 L 541.5 798.658 L 549 802.988 L 549 779.894 Z " fill="rgb(116,116,116)"/><path d=" M 489 745.253 L 481.5 740.923 L 481.5 764.017 L 489 768.347 L 489 745.253 Z " fill="rgb(116,116,116)"/><path d=" M 519 762.573 L 511.5 758.243 L 511.5 781.337 L 519 785.667 L 519 762.573 Z " fill="rgb(116,116,116)"/><path d=" M 459 727.932 L 451.5 723.602 L 451.5 746.696 L 459 751.026 L 459 727.932 Z " fill="rgb(116,116,116)"/><path d=" M 539 774.12 L 531.5 769.79 L 531.5 792.884 L 539 797.214 L 539 774.12 Z " fill="rgb(116,116,116)"/><path d=" M 479 739.479 L 471.5 735.149 L 471.5 758.243 L 479 762.573 L 479 739.479 Z " fill="rgb(116,116,116)"/><path d=" M 509 756.8 L 501.5 752.47 L 501.5 775.564 L 509 779.894 L 509 756.8 Z " fill="rgb(116,116,116)"/><path d=" M 449 722.159 L 441.5 717.829 L 441.5 740.923 L 449 745.253 L 449 722.159 Z " fill="rgb(116,116,116)"/><path d=" M 389 687.518 L 381.5 683.188 L 381.5 706.282 L 389 710.612 L 389 687.518 Z " fill="rgb(116,116,116)"/><path d=" M 419 704.838 L 411.5 700.508 L 411.5 723.602 L 419 727.932 L 419 704.838 Z " fill="rgb(116,116,116)"/><path d=" M 359 670.197 L 351.5 665.867 L 351.5 688.961 L 359 693.291 L 359 670.197 Z " fill="rgb(116,116,116)"/><path d=" M 439 716.385 L 431.5 712.055 L 431.5 735.149 L 439 739.479 L 439 716.385 Z " fill="rgb(116,116,116)"/><path d=" M 379 681.744 L 371.5 677.414 L 371.5 700.508 L 379 704.838 L 379 681.744 Z " fill="rgb(116,116,116)"/><path d=" M 409 699.065 L 401.5 694.735 L 401.5 717.829 L 409 722.159 L 409 699.065 Z " fill="rgb(116,116,116)"/><path d=" M 349 664.424 L 341.5 660.094 L 341.5 683.188 L 349 687.518 L 349 664.424 Z " fill="rgb(116,116,116)"/><path d=" M 429 710.612 L 421.5 706.282 L 421.5 729.376 L 429 733.706 L 429 710.612 Z " fill="rgb(116,116,116)"/><path d=" M 369 675.971 L 361.5 671.641 L 361.5 694.735 L 369 699.065 L 369 675.971 Z " fill="rgb(116,116,116)"/><path d=" M 399 693.291 L 391.5 688.961 L 391.5 712.055 L 399 716.385 L 399 693.291 Z " fill="rgb(116,116,116)"/><path d=" M 339 658.65 L 331.5 654.32 L 331.5 677.414 L 339 681.744 L 339 658.65 Z " fill="rgb(116,116,116)"/><path d=" M 329 652.877 L 321.5 648.547 L 321.5 671.641 L 329 675.971 L 329 652.877 Z " fill="rgb(116,116,116)"/><path d=" M 559 814.931 L 551.5 810.601 L 551.5 833.695 L 559 838.025 L 559 814.931 Z " fill="rgb(116,116,116)"/><path d=" M 499 780.29 L 491.5 775.96 L 491.5 799.054 L 499 803.384 L 499 780.29 Z " fill="rgb(116,116,116)"/><path d=" M 529 797.61 L 521.5 793.28 L 521.5 816.374 L 529 820.704 L 529 797.61 Z " fill="rgb(116,116,116)"/><path d=" M 469 762.969 L 461.5 758.639 L 461.5 781.733 L 469 786.063 L 469 762.969 Z " fill="rgb(116,116,116)"/><path d=" M 549 809.157 L 541.5 804.827 L 541.5 827.921 L 549 832.251 L 549 809.157 Z " fill="rgb(116,116,116)"/><path d=" M 489 774.516 L 481.5 770.186 L 481.5 793.28 L 489 797.61 L 489 774.516 Z " fill="rgb(116,116,116)"/><path d=" M 519 791.837 L 511.5 787.507 L 511.5 810.601 L 519 814.931 L 519 791.837 Z " fill="rgb(116,116,116)"/><path d=" M 459 757.196 L 451.5 752.866 L 451.5 775.96 L 459 780.29 L 459 757.196 Z " fill="rgb(116,116,116)"/><path d=" M 539 803.384 L 531.5 799.054 L 531.5 822.148 L 539 826.478 L 539 803.384 Z " fill="rgb(116,116,116)"/><path d=" M 479 768.743 L 471.5 764.413 L 471.5 787.507 L 479 791.837 L 479 768.743 Z " fill="rgb(116,116,116)"/><path d=" M 509 786.063 L 501.5 781.733 L 501.5 804.827 L 509 809.157 L 509 786.063 Z " fill="rgb(116,116,116)"/><path d=" M 449 751.422 L 441.5 747.092 L 441.5 770.186 L 449 774.516 L 449 751.422 Z " fill="rgb(116,116,116)"/><path d=" M 389 716.781 L 381.5 712.451 L 381.5 735.545 L 389 739.875 L 389 716.781 Z " fill="rgb(116,116,116)"/><path d=" M 419 734.102 L 411.5 729.772 L 411.5 752.866 L 419 757.196 L 419 734.102 Z " fill="rgb(116,116,116)"/><path d=" M 359 699.461 L 351.5 695.131 L 351.5 718.225 L 359 722.555 L 359 699.461 Z " fill="rgb(116,116,116)"/><path d=" M 439 745.649 L 431.5 741.319 L 431.5 764.413 L 439 768.743 L 439 745.649 Z " fill="rgb(116,116,116)"/><path d=" M 379 711.008 L 371.5 706.678 L 371.5 729.772 L 379 734.102 L 379 711.008 Z " fill="rgb(116,116,116)"/><path d=" M 409 728.328 L 401.5 723.998 L 401.5 747.092 L 409 751.422 L 409 728.328 Z " fill="rgb(116,116,116)"/><path d=" M 349 693.687 L 341.5 689.357 L 341.5 712.451 L 349 716.781 L 349 693.687 Z " fill="rgb(116,116,116)"/><path d=" M 429 739.875 L 421.5 735.545 L 421.5 758.639 L 429 762.969 L 429 739.875 Z " fill="rgb(116,116,116)"/><path d=" M 369 705.234 L 361.5 700.904 L 361.5 723.998 L 369 728.328 L 369 705.234 Z " fill="rgb(116,116,116)"/><path d=" M 399 722.555 L 391.5 718.225 L 391.5 741.319 L 399 745.649 L 399 722.555 Z " fill="rgb(116,116,116)"/><path d=" M 339 687.914 L 331.5 683.584 L 331.5 706.678 L 339 711.008 L 339 687.914 Z " fill="rgb(116,116,116)"/><path d=" M 329 682.14 L 321.5 677.81 L 321.5 700.904 L 329 705.234 L 329 682.14 Z " fill="rgb(116,116,116)"/></g><g id="windows-right"><path d=" M 571 580.823 L 578.5 576.493 L 578.5 599.587 L 571 603.917 L 571 580.823 Z " fill="rgb(116,116,116)"/><path d=" M 631 546.182 L 638.5 541.852 L 638.5 564.946 L 631 569.276 L 631 546.182 Z " fill="rgb(116,116,116)"/><path d=" M 601 563.503 L 608.5 559.173 L 608.5 582.267 L 601 586.597 L 601 563.503 Z " fill="rgb(116,116,116)"/><path d=" M 661 528.862 L 668.5 524.532 L 668.5 547.626 L 661 551.956 L 661 528.862 Z " fill="rgb(116,116,116)"/><path d=" M 581 575.05 L 588.5 570.72 L 588.5 593.814 L 581 598.144 L 581 575.05 Z " fill="rgb(116,116,116)"/><path d=" M 641 540.409 L 648.5 536.079 L 648.5 559.173 L 641 563.503 L 641 540.409 Z " fill="rgb(116,116,116)"/><path d=" M 611 557.729 L 618.5 553.399 L 618.5 576.493 L 611 580.823 L 611 557.729 Z " fill="rgb(116,116,116)"/><path d=" M 591 569.276 L 598.5 564.946 L 598.5 588.04 L 591 592.37 L 591 569.276 Z " fill="rgb(116,116,116)"/><path d=" M 651 534.635 L 658.5 530.305 L 658.5 553.399 L 651 557.729 L 651 534.635 Z " fill="rgb(116,116,116)"/><path d=" M 621 551.956 L 628.5 547.626 L 628.5 570.72 L 621 575.05 L 621 551.956 Z " fill="rgb(116,116,116)"/><path d=" M 571 610.087 L 578.5 605.757 L 578.5 628.851 L 571 633.181 L 571 610.087 Z " fill="rgb(116,116,116)"/><path d=" M 631 575.446 L 638.5 571.115 L 638.5 594.21 L 631 598.54 L 631 575.446 Z " fill="rgb(116,116,116)"/><path d=" M 601 592.766 L 608.5 588.436 L 608.5 611.53 L 601 615.86 L 601 592.766 Z " fill="rgb(116,116,116)"/><path d=" M 661 558.125 L 668.5 553.795 L 668.5 576.889 L 661 581.219 L 661 558.125 Z " fill="rgb(116,116,116)"/><path d=" M 581 604.313 L 588.5 599.983 L 588.5 623.077 L 581 627.407 L 581 604.313 Z " fill="rgb(116,116,116)"/><path d=" M 641 569.672 L 648.5 565.342 L 648.5 588.436 L 641 592.766 L 641 569.672 Z " fill="rgb(116,116,116)"/><path d=" M 611 586.993 L 618.5 582.662 L 618.5 605.757 L 611 610.087 L 611 586.993 Z " fill="rgb(116,116,116)"/><path d=" M 591 598.54 L 598.5 594.21 L 598.5 617.304 L 591 621.634 L 591 598.54 Z " fill="rgb(116,116,116)"/><path d=" M 651 563.899 L 658.5 559.568 L 658.5 582.663 L 651 586.993 L 651 563.899 Z " fill="rgb(116,116,116)"/><path d=" M 621 581.219 L 628.5 576.889 L 628.5 599.983 L 621 604.313 L 621 581.219 Z " fill="rgb(116,116,116)"/><path d=" M 571 639.35 L 578.5 635.02 L 578.5 658.114 L 571 662.444 L 571 639.35 Z " fill="rgb(116,116,116)"/><path d=" M 631 604.709 L 638.5 600.379 L 638.5 623.473 L 631 627.803 L 631 604.709 Z " fill="rgb(116,116,116)"/><path d=" M 601 622.03 L 608.5 617.699 L 608.5 640.793 L 601 645.124 L 601 622.03 Z " fill="rgb(116,116,116)"/><path d=" M 661 587.389 L 668.5 583.058 L 668.5 606.152 L 661 610.483 L 661 587.389 Z " fill="rgb(116,116,116)"/><path d=" M 581 633.577 L 588.5 629.246 L 588.5 652.341 L 581 656.671 L 581 633.577 Z " fill="rgb(116,116,116)"/><path d=" M 641 598.936 L 648.5 594.605 L 648.5 617.699 L 641 622.03 L 641 598.936 Z " fill="rgb(116,116,116)"/><path d=" M 611 616.256 L 618.5 611.926 L 618.5 635.02 L 611 639.35 L 611 616.256 Z " fill="rgb(116,116,116)"/><path d=" M 591 627.803 L 598.5 623.473 L 598.5 646.567 L 591 650.897 L 591 627.803 Z " fill="rgb(116,116,116)"/><path d=" M 651 593.162 L 658.5 588.832 L 658.5 611.926 L 651 616.256 L 651 593.162 Z " fill="rgb(116,116,116)"/><path d=" M 621 610.483 L 628.5 606.152 L 628.5 629.246 L 621 633.577 L 621 610.483 Z " fill="rgb(116,116,116)"/><path d=" M 571 668.614 L 578.5 664.283 L 578.5 687.377 L 571 691.708 L 571 668.614 Z " fill="rgb(116,116,116)"/><path d=" M 631 633.973 L 638.5 629.642 L 638.5 652.736 L 631 657.067 L 631 633.973 Z " fill="rgb(116,116,116)"/><path d=" M 601 651.293 L 608.5 646.963 L 608.5 670.057 L 601 674.387 L 601 651.293 Z " fill="rgb(116,116,116)"/><path d=" M 661 616.652 L 668.5 612.322 L 668.5 635.416 L 661 639.746 L 661 616.652 Z " fill="rgb(116,116,116)"/><path d=" M 581 662.84 L 588.5 658.51 L 588.5 681.604 L 581 685.934 L 581 662.84 Z " fill="rgb(116,116,116)"/><path d=" M 641 628.199 L 648.5 623.869 L 648.5 646.963 L 641 651.293 L 641 628.199 Z " fill="rgb(116,116,116)"/><path d=" M 611 645.52 L 618.5 641.189 L 618.5 664.283 L 611 668.614 L 611 645.52 Z " fill="rgb(116,116,116)"/><path d=" M 591 657.067 L 598.5 652.736 L 598.5 675.83 L 591 680.161 L 591 657.067 Z " fill="rgb(116,116,116)"/><path d=" M 651 622.426 L 658.5 618.095 L 658.5 641.189 L 651 645.52 L 651 622.426 Z " fill="rgb(116,116,116)"/><path d=" M 621 639.746 L 628.5 635.416 L 628.5 658.51 L 621 662.84 L 621 639.746 Z " fill="rgb(116,116,116)"/><path d=" M 571 697.877 L 578.5 693.547 L 578.5 716.641 L 571 720.971 L 571 697.877 Z " fill="rgb(116,116,116)"/><path d=" M 631 663.236 L 638.5 658.906 L 638.5 682 L 631 686.33 L 631 663.236 Z " fill="rgb(116,116,116)"/><path d=" M 601 680.557 L 608.5 676.226 L 608.5 699.32 L 601 703.651 L 601 680.557 Z " fill="rgb(116,116,116)"/><path d=" M 661 645.916 L 668.5 641.585 L 668.5 664.679 L 661 669.01 L 661 645.916 Z " fill="rgb(116,116,116)"/><path d=" M 581 692.104 L 588.5 687.773 L 588.5 710.867 L 581 715.198 L 581 692.104 Z " fill="rgb(116,116,116)"/><path d=" M 641 657.463 L 648.5 653.132 L 648.5 676.226 L 641 680.557 L 641 657.463 Z " fill="rgb(116,116,116)"/><path d=" M 611 674.783 L 618.5 670.453 L 618.5 693.547 L 611 697.877 L 611 674.783 Z " fill="rgb(116,116,116)"/><path d=" M 591 686.33 L 598.5 682 L 598.5 705.094 L 591 709.424 L 591 686.33 Z " fill="rgb(116,116,116)"/><path d=" M 651 651.689 L 658.5 647.359 L 658.5 670.453 L 651 674.783 L 651 651.689 Z " fill="rgb(116,116,116)"/><path d=" M 621 669.01 L 628.5 664.679 L 628.5 687.773 L 621 692.104 L 621 669.01 Z " fill="rgb(116,116,116)"/><path d=" M 571 727.141 L 578.5 722.81 L 578.5 745.904 L 571 750.235 L 571 727.141 Z " fill="rgb(116,116,116)"/><path d=" M 631 692.5 L 638.5 688.169 L 638.5 711.263 L 631 715.594 L 631 692.5 Z " fill="rgb(116,116,116)"/><path d=" M 601 709.82 L 608.5 705.49 L 608.5 728.584 L 601 732.914 L 601 709.82 Z " fill="rgb(116,116,116)"/><path d=" M 661 675.179 L 668.5 670.849 L 668.5 693.943 L 661 698.273 L 661 675.179 Z " fill="rgb(116,116,116)"/><path d=" M 581 721.367 L 588.5 717.037 L 588.5 740.131 L 581 744.461 L 581 721.367 Z " fill="rgb(116,116,116)"/><path d=" M 641 686.726 L 648.5 682.396 L 648.5 705.49 L 641 709.82 L 641 686.726 Z " fill="rgb(116,116,116)"/><path d=" M 611 704.047 L 618.5 699.716 L 618.5 722.81 L 611 727.141 L 611 704.047 Z " fill="rgb(116,116,116)"/><path d=" M 591 715.594 L 598.5 711.263 L 598.5 734.357 L 591 738.688 L 591 715.594 Z " fill="rgb(116,116,116)"/><path d=" M 651 680.953 L 658.5 676.622 L 658.5 699.716 L 651 704.047 L 651 680.953 Z " fill="rgb(116,116,116)"/><path d=" M 621 698.273 L 628.5 693.943 L 628.5 717.037 L 621 721.367 L 621 698.273 Z " fill="rgb(116,116,116)"/><path d=" M 571 756.404 L 578.5 752.074 L 578.5 775.168 L 571 779.498 L 571 756.404 Z " fill="rgb(116,116,116)"/><path d=" M 631 721.763 L 638.5 717.433 L 638.5 740.527 L 631 744.857 L 631 721.763 Z " fill="rgb(116,116,116)"/><path d=" M 601 739.083 L 608.5 734.753 L 608.5 757.847 L 601 762.178 L 601 739.083 Z " fill="rgb(116,116,116)"/><path d=" M 661 704.442 L 668.5 700.112 L 668.5 723.206 L 661 727.536 L 661 704.442 Z " fill="rgb(116,116,116)"/><path d=" M 581 750.631 L 588.5 746.3 L 588.5 769.394 L 581 773.725 L 581 750.631 Z " fill="rgb(116,116,116)"/><path d=" M 641 715.989 L 648.5 711.659 L 648.5 734.753 L 641 739.083 L 641 715.989 Z " fill="rgb(116,116,116)"/><path d=" M 611 733.31 L 618.5 728.98 L 618.5 752.074 L 611 756.404 L 611 733.31 Z " fill="rgb(116,116,116)"/><path d=" M 591 744.857 L 598.5 740.527 L 598.5 763.621 L 591 767.951 L 591 744.857 Z " fill="rgb(116,116,116)"/><path d=" M 651 710.216 L 658.5 705.886 L 658.5 728.98 L 651 733.31 L 651 710.216 Z " fill="rgb(116,116,116)"/><path d=" M 621 727.537 L 628.5 723.206 L 628.5 746.3 L 621 750.631 L 621 727.537 Z " fill="rgb(116,116,116)"/><path d=" M 571 785.667 L 578.5 781.337 L 578.5 804.431 L 571 808.761 L 571 785.667 Z " fill="rgb(116,116,116)"/><path d=" M 631 751.026 L 638.5 746.696 L 638.5 769.79 L 631 774.12 L 631 751.026 Z " fill="rgb(116,116,116)"/><path d=" M 601 768.347 L 608.5 764.017 L 608.5 787.111 L 601 791.441 L 601 768.347 Z " fill="rgb(116,116,116)"/><path d=" M 661 733.706 L 668.5 729.376 L 668.5 752.47 L 661 756.8 L 661 733.706 Z " fill="rgb(116,116,116)"/><path d=" M 581 779.894 L 588.5 775.564 L 588.5 798.658 L 581 802.988 L 581 779.894 Z " fill="rgb(116,116,116)"/><path d=" M 641 745.253 L 648.5 740.923 L 648.5 764.017 L 641 768.347 L 641 745.253 Z " fill="rgb(116,116,116)"/><path d=" M 611 762.573 L 618.5 758.243 L 618.5 781.337 L 611 785.667 L 611 762.573 Z " fill="rgb(116,116,116)"/><path d=" M 591 774.12 L 598.5 769.79 L 598.5 792.884 L 591 797.214 L 591 774.12 Z " fill="rgb(116,116,116)"/><path d=" M 651 739.479 L 658.5 735.149 L 658.5 758.243 L 651 762.573 L 651 739.479 Z " fill="rgb(116,116,116)"/><path d=" M 621 756.8 L 628.5 752.47 L 628.5 775.564 L 621 779.894 L 621 756.8 Z " fill="rgb(116,116,116)"/><path d=" M 571 814.931 L 578.5 810.601 L 578.5 833.695 L 571 838.025 L 571 814.931 Z " fill="rgb(116,116,116)"/><path d=" M 631 780.29 L 638.5 775.96 L 638.5 799.054 L 631 803.384 L 631 780.29 Z " fill="rgb(116,116,116)"/><path d=" M 601 797.61 L 608.5 793.28 L 608.5 816.374 L 601 820.704 L 601 797.61 Z " fill="rgb(116,116,116)"/><path d=" M 661 762.969 L 668.5 758.639 L 668.5 781.733 L 661 786.063 L 661 762.969 Z " fill="rgb(116,116,116)"/><path d=" M 581 809.157 L 588.5 804.827 L 588.5 827.921 L 581 832.251 L 581 809.157 Z " fill="rgb(116,116,116)"/><path d=" M 641 774.516 L 648.5 770.186 L 648.5 793.28 L 641 797.61 L 641 774.516 Z " fill="rgb(116,116,116)"/><path d=" M 611 791.837 L 618.5 787.507 L 618.5 810.601 L 611 814.931 L 611 791.837 Z " fill="rgb(116,116,116)"/><path d=" M 591 803.384 L 598.5 799.054 L 598.5 822.148 L 591 826.478 L 591 803.384 Z " fill="rgb(116,116,116)"/><path d=" M 651 768.743 L 658.5 764.413 L 658.5 787.507 L 651 791.837 L 651 768.743 Z " fill="rgb(116,116,116)"/><path d=" M 621 786.063 L 628.5 781.733 L 628.5 804.827 L 621 809.157 L 621 786.063 Z " fill="rgb(116,116,116)"/></g></g></svg>