<?xml version="1.0" standalone="no"?><!-- Generator: Gravit.io --><svg xmlns="http://www.w3.org/2000/svg" xmlns:xlink="http://www.w3.org/1999/xlink" style="isolation:isolate" viewBox="315 326.203 360 254.216" width="360" height="254.216"><g id="25parkplace-roof"><path d=" M 565 534.049 L 565 580.419 L 675 516.91 L 675 470.54 L 565 534.049 Z " fill="rgb(232,232,232)"/><path d=" M 565 534.049 L 565 580.237 L 315 435.899 L 315 389.711 L 565 534.049 Z " fill="rgb(209,209,209)"/><path d=" M 315 389.711 L 425 326.203 L 675 470.54 L 565 534.049 L 315 389.711 Z " fill="rgb(249,249,249)"/><path d=" M 335 389.711 L 565 522.502 L 655 470.722 L 425 337.931 L 335 389.711 Z " fill="rgb(242,242,242)"/><g id="roof-detail-right"><path d=" M 571.25 567.968 L 571.25 539.101 L 573.75 537.657 L 573.75 566.525 L 571.25 567.968 Z " fill="rgb(209,209,209)"/><path d=" M 631.25 533.327 L 631.25 504.46 L 633.75 503.016 L 633.75 531.884 L 631.25 533.327 Z " fill="rgb(209,209,209)"/><path d=" M 601.25 550.648 L 601.25 521.78 L 603.75 520.337 L 603.75 549.204 L 601.25 550.648 Z " fill="rgb(209,209,209)"/><path d=" M 661.25 516.007 L 661.25 487.139 L 663.75 485.696 L 663.75 514.563 L 661.25 516.007 Z " fill="rgb(209,209,209)"/><path d=" M 586.25 559.308 L 586.25 530.441 L 588.75 528.997 L 588.75 557.865 L 586.25 559.308 Z " fill="rgb(209,209,209)"/><path d=" M 646.25 524.667 L 646.25 495.8 L 648.75 494.356 L 648.75 523.224 L 646.25 524.667 Z " fill="rgb(209,209,209)"/><path d=" M 616.25 541.988 L 616.25 513.12 L 618.75 511.677 L 618.75 540.544 L 616.25 541.988 Z " fill="rgb(209,209,209)"/><path d=" M 576.25 565.082 L 576.25 536.214 L 578.75 534.771 L 578.75 563.638 L 576.25 565.082 Z " fill="rgb(209,209,209)"/><path d=" M 636.25 530.441 L 636.25 501.573 L 638.75 500.13 L 638.75 528.997 L 636.25 530.441 Z " fill="rgb(209,209,209)"/><path d=" M 606.25 547.761 L 606.25 518.894 L 608.75 517.45 L 608.75 546.318 L 606.25 547.761 Z " fill="rgb(209,209,209)"/><path d=" M 666.25 513.12 L 666.25 484.253 L 668.75 482.809 L 668.75 511.677 L 666.25 513.12 Z " fill="rgb(209,209,209)"/><path d=" M 591.25 556.421 L 591.25 527.554 L 593.75 526.11 L 593.75 554.978 L 591.25 556.421 Z " fill="rgb(209,209,209)"/><path d=" M 651.25 521.78 L 651.25 492.913 L 653.75 491.469 L 653.75 520.337 L 651.25 521.78 Z " fill="rgb(209,209,209)"/><path d=" M 621.25 539.101 L 621.25 510.233 L 623.75 508.79 L 623.75 537.657 L 621.25 539.101 Z " fill="rgb(209,209,209)"/><path d=" M 581.25 562.195 L 581.25 533.327 L 583.75 531.884 L 583.75 560.751 L 581.25 562.195 Z " fill="rgb(209,209,209)"/><path d=" M 641.25 527.554 L 641.25 498.686 L 643.75 497.243 L 643.75 526.11 L 641.25 527.554 Z " fill="rgb(209,209,209)"/><path d=" M 611.25 544.874 L 611.25 516.007 L 613.75 514.563 L 613.75 543.431 L 611.25 544.874 Z " fill="rgb(209,209,209)"/><path d=" M 596.25 553.535 L 596.25 524.667 L 598.75 523.224 L 598.75 552.091 L 596.25 553.535 Z " fill="rgb(209,209,209)"/><path d=" M 656.25 518.894 L 656.25 490.026 L 658.75 488.583 L 658.75 517.45 L 656.25 518.894 Z " fill="rgb(209,209,209)"/><path d=" M 626.25 536.214 L 626.25 507.347 L 628.75 505.903 L 628.75 534.771 L 626.25 536.214 Z " fill="rgb(209,209,209)"/></g><g id="roof-detail-left"><path d=" M 558.75 567.968 L 558.75 539.101 L 556.25 537.657 L 556.25 566.525 L 558.75 567.968 Z " fill="rgb(162,162,162)"/><path d=" M 498.75 533.327 L 498.75 504.46 L 496.25 503.016 L 496.25 531.884 L 498.75 533.327 Z " fill="rgb(162,162,162)"/><path d=" M 528.75 550.648 L 528.75 521.78 L 526.25 520.337 L 526.25 549.204 L 528.75 550.648 Z " fill="rgb(162,162,162)"/><path d=" M 468.75 516.007 L 468.75 487.139 L 466.25 485.696 L 466.25 514.563 L 468.75 516.007 Z " fill="rgb(162,162,162)"/><path d=" M 543.75 559.308 L 543.75 530.441 L 541.25 528.997 L 541.25 557.865 L 543.75 559.308 Z " fill="rgb(162,162,162)"/><path d=" M 483.75 524.667 L 483.75 495.8 L 481.25 494.356 L 481.25 523.224 L 483.75 524.667 Z " fill="rgb(162,162,162)"/><path d=" M 513.75 541.988 L 513.75 513.12 L 511.25 511.677 L 511.25 540.544 L 513.75 541.988 Z " fill="rgb(162,162,162)"/><path d=" M 453.75 507.347 L 453.75 478.479 L 451.25 477.036 L 451.25 505.903 L 453.75 507.347 Z " fill="rgb(162,162,162)"/><path d=" M 553.75 565.082 L 553.75 536.214 L 551.25 534.771 L 551.25 563.638 L 553.75 565.082 Z " fill="rgb(162,162,162)"/><path d=" M 493.75 530.441 L 493.75 501.573 L 491.25 500.13 L 491.25 528.997 L 493.75 530.441 Z " fill="rgb(162,162,162)"/><path d=" M 523.75 547.761 L 523.75 518.894 L 521.25 517.45 L 521.25 546.318 L 523.75 547.761 Z " fill="rgb(162,162,162)"/><path d=" M 463.75 513.12 L 463.75 484.253 L 461.25 482.809 L 461.25 511.677 L 463.75 513.12 Z " fill="rgb(162,162,162)"/><path d=" M 538.75 556.421 L 538.75 527.554 L 536.25 526.11 L 536.25 554.978 L 538.75 556.421 Z " fill="rgb(162,162,162)"/><path d=" M 478.75 521.78 L 478.75 492.913 L 476.25 491.469 L 476.25 520.337 L 478.75 521.78 Z " fill="rgb(162,162,162)"/><path d=" M 508.75 539.101 L 508.75 510.233 L 506.25 508.79 L 506.25 537.657 L 508.75 539.101 Z " fill="rgb(162,162,162)"/><path d=" M 548.75 562.195 L 548.75 533.327 L 546.25 531.884 L 546.25 560.751 L 548.75 562.195 Z " fill="rgb(162,162,162)"/><path d=" M 488.75 527.554 L 488.75 498.686 L 486.25 497.243 L 486.25 526.11 L 488.75 527.554 Z " fill="rgb(162,162,162)"/><path d=" M 518.75 544.874 L 518.75 516.007 L 516.25 514.563 L 516.25 543.431 L 518.75 544.874 Z " fill="rgb(162,162,162)"/><path d=" M 458.75 510.233 L 458.75 481.366 L 456.25 479.922 L 456.25 508.79 L 458.75 510.233 Z " fill="rgb(162,162,162)"/><path d=" M 533.75 553.535 L 533.75 524.667 L 531.25 523.224 L 531.25 552.091 L 533.75 553.535 Z " fill="rgb(162,162,162)"/><path d=" M 473.75 518.894 L 473.75 490.026 L 471.25 488.583 L 471.25 517.45 L 473.75 518.894 Z " fill="rgb(162,162,162)"/><path d=" M 503.75 536.214 L 503.75 507.347 L 501.25 505.903 L 501.25 534.771 L 503.75 536.214 Z " fill="rgb(162,162,162)"/><path d=" M 453.75 507.347 L 453.75 478.479 L 451.25 477.036 L 451.25 505.903 L 453.75 507.347 Z " fill="rgb(162,162,162)"/><path d=" M 393.75 472.706 L 393.75 443.838 L 391.25 442.395 L 391.25 471.262 L 393.75 472.706 Z " fill="rgb(162,162,162)"/><path d=" M 423.75 490.026 L 423.75 461.159 L 421.25 459.715 L 421.25 488.583 L 423.75 490.026 Z " fill="rgb(162,162,162)"/><path d=" M 363.75 455.385 L 363.75 426.518 L 361.25 425.074 L 361.25 453.942 L 363.75 455.385 Z " fill="rgb(162,162,162)"/><path d=" M 438.75 498.686 L 438.75 469.819 L 436.25 468.375 L 436.25 497.243 L 438.75 498.686 Z " fill="rgb(162,162,162)"/><path d=" M 378.75 464.045 L 378.75 435.178 L 376.25 433.734 L 376.25 462.602 L 378.75 464.045 Z " fill="rgb(162,162,162)"/><path d=" M 408.75 481.366 L 408.75 452.498 L 406.25 451.055 L 406.25 479.922 L 408.75 481.366 Z " fill="rgb(162,162,162)"/><path d=" M 348.75 446.725 L 348.75 417.857 L 346.25 416.414 L 346.25 445.281 L 348.75 446.725 Z " fill="rgb(162,162,162)"/><path d=" M 448.75 504.46 L 448.75 475.592 L 446.25 474.149 L 446.25 503.016 L 448.75 504.46 Z " fill="rgb(162,162,162)"/><path d=" M 388.75 469.819 L 388.75 440.951 L 386.25 439.508 L 386.25 468.375 L 388.75 469.819 Z " fill="rgb(162,162,162)"/><path d=" M 418.75 487.139 L 418.75 458.272 L 416.25 456.828 L 416.25 485.696 L 418.75 487.139 Z " fill="rgb(162,162,162)"/><path d=" M 358.75 452.498 L 358.75 423.631 L 356.25 422.187 L 356.25 451.055 L 358.75 452.498 Z " fill="rgb(162,162,162)"/><path d=" M 433.75 495.8 L 433.75 466.932 L 431.25 465.489 L 431.25 494.356 L 433.75 495.8 Z " fill="rgb(162,162,162)"/><path d=" M 373.75 461.159 L 373.75 432.291 L 371.25 430.848 L 371.25 459.715 L 373.75 461.159 Z " fill="rgb(162,162,162)"/><path d=" M 403.75 478.479 L 403.75 449.612 L 401.25 448.168 L 401.25 477.036 L 403.75 478.479 Z " fill="rgb(162,162,162)"/><path d=" M 443.75 501.573 L 443.75 472.706 L 441.25 471.262 L 441.25 500.13 L 443.75 501.573 Z " fill="rgb(162,162,162)"/><path d=" M 383.75 466.932 L 383.75 438.065 L 381.25 436.621 L 381.25 465.489 L 383.75 466.932 Z " fill="rgb(162,162,162)"/><path d=" M 413.75 484.253 L 413.75 455.385 L 411.25 453.942 L 411.25 482.809 L 413.75 484.253 Z " fill="rgb(162,162,162)"/><path d=" M 353.75 449.612 L 353.75 420.744 L 351.25 419.301 L 351.25 448.168 L 353.75 449.612 Z " fill="rgb(162,162,162)"/><path d=" M 428.75 492.913 L 428.75 464.045 L 426.25 462.602 L 426.25 491.469 L 428.75 492.913 Z " fill="rgb(162,162,162)"/><path d=" M 368.75 458.272 L 368.75 429.404 L 366.25 427.961 L 366.25 456.828 L 368.75 458.272 Z " fill="rgb(162,162,162)"/><path d=" M 398.75 475.592 L 398.75 446.725 L 396.25 445.281 L 396.25 474.149 L 398.75 475.592 Z " fill="rgb(162,162,162)"/><path d=" M 348.75 446.725 L 348.75 417.857 L 346.25 416.414 L 346.25 445.281 L 348.75 446.725 Z " fill="rgb(162,162,162)"/><path d=" M 333.75 438.065 L 333.75 409.197 L 331.25 407.754 L 331.25 436.621 L 333.75 438.065 Z " fill="rgb(162,162,162)"/><path d=" M 343.75 443.838 L 343.75 414.971 L 341.25 413.527 L 341.25 442.395 L 343.75 443.838 Z " fill="rgb(162,162,162)"/><path d=" M 328.75 435.178 L 328.75 406.31 L 326.25 404.867 L 326.25 433.734 L 328.75 435.178 Z " fill="rgb(162,162,162)"/><path d=" M 338.75 440.951 L 338.75 412.084 L 336.25 410.64 L 336.25 439.508 L 338.75 440.951 Z " fill="rgb(162,162,162)"/><path d=" M 323.75 432.291 L 323.75 403.424 L 321.25 401.98 L 321.25 430.848 L 323.75 432.291 Z " fill="rgb(162,162,162)"/></g></g></svg>