<?xml version="1.0" standalone="no"?><!-- Generator: Gravit.io --><svg xmlns="http://www.w3.org/2000/svg" xmlns:xlink="http://www.w3.org/1999/xlink" style="isolation:isolate" viewBox="315 -205.05 360 254.216" width="360" height="254.216"><g id="25parkplace-roof"><path d=" M 565 2.796 L 565 49.166 L 675 -14.343 L 675 -60.713 L 565 2.796 Z " fill="rgb(232,232,232)"/><path d=" M 565 2.796 L 565 48.984 L 315 -95.354 L 315 -141.542 L 565 2.796 Z " fill="rgb(209,209,209)"/><path d=" M 315 -141.542 L 425 -205.05 L 675 -60.713 L 565 2.796 L 315 -141.542 Z " fill="rgb(249,249,249)"/><path d=" M 335 -141.542 L 565 -8.751 L 655 -60.531 L 425 -193.322 L 335 -141.542 Z " fill="rgb(242,242,242)"/><g id="roof-detail-right"><path d=" M 571.25 36.715 L 571.25 7.848 L 573.75 6.404 L 573.75 35.272 L 571.25 36.715 Z " fill="rgb(209,209,209)"/><path d=" M 631.25 2.074 L 631.25 -26.793 L 633.75 -28.237 L 633.75 0.631 L 631.25 2.074 Z " fill="rgb(209,209,209)"/><path d=" M 601.25 19.395 L 601.25 -9.473 L 603.75 -10.916 L 603.75 17.951 L 601.25 19.395 Z " fill="rgb(209,209,209)"/><path d=" M 661.25 -15.246 L 661.25 -44.114 L 663.75 -45.557 L 663.75 -16.69 L 661.25 -15.246 Z " fill="rgb(209,209,209)"/><path d=" M 586.25 28.055 L 586.25 -0.812 L 588.75 -2.256 L 588.75 26.612 L 586.25 28.055 Z " fill="rgb(209,209,209)"/><path d=" M 646.25 -6.586 L 646.25 -35.453 L 648.75 -36.897 L 648.75 -8.029 L 646.25 -6.586 Z " fill="rgb(209,209,209)"/><path d=" M 616.25 10.735 L 616.25 -18.133 L 618.75 -19.576 L 618.75 9.291 L 616.25 10.735 Z " fill="rgb(209,209,209)"/><path d=" M 576.25 33.829 L 576.25 4.961 L 578.75 3.518 L 578.75 32.385 L 576.25 33.829 Z " fill="rgb(209,209,209)"/><path d=" M 636.25 -0.812 L 636.25 -29.68 L 638.75 -31.123 L 638.75 -2.256 L 636.25 -0.812 Z " fill="rgb(209,209,209)"/><path d=" M 606.25 16.508 L 606.25 -12.359 L 608.75 -13.803 L 608.75 15.065 L 606.25 16.508 Z " fill="rgb(209,209,209)"/><path d=" M 666.25 -18.133 L 666.25 -47 L 668.75 -48.444 L 668.75 -19.576 L 666.25 -18.133 Z " fill="rgb(209,209,209)"/><path d=" M 591.25 25.168 L 591.25 -3.699 L 593.75 -5.143 L 593.75 23.725 L 591.25 25.168 Z " fill="rgb(209,209,209)"/><path d=" M 651.25 -9.473 L 651.25 -38.34 L 653.75 -39.784 L 653.75 -10.916 L 651.25 -9.473 Z " fill="rgb(209,209,209)"/><path d=" M 621.25 7.848 L 621.25 -21.02 L 623.75 -22.463 L 623.75 6.404 L 621.25 7.848 Z " fill="rgb(209,209,209)"/><path d=" M 581.25 30.942 L 581.25 2.074 L 583.75 0.631 L 583.75 29.498 L 581.25 30.942 Z " fill="rgb(209,209,209)"/><path d=" M 641.25 -3.699 L 641.25 -32.567 L 643.75 -34.01 L 643.75 -5.143 L 641.25 -3.699 Z " fill="rgb(209,209,209)"/><path d=" M 611.25 13.621 L 611.25 -15.246 L 613.75 -16.69 L 613.75 12.178 L 611.25 13.621 Z " fill="rgb(209,209,209)"/><path d=" M 596.25 22.282 L 596.25 -6.586 L 598.75 -8.029 L 598.75 20.838 L 596.25 22.282 Z " fill="rgb(209,209,209)"/><path d=" M 656.25 -12.359 L 656.25 -41.227 L 658.75 -42.67 L 658.75 -13.803 L 656.25 -12.359 Z " fill="rgb(209,209,209)"/><path d=" M 626.25 4.961 L 626.25 -23.906 L 628.75 -25.35 L 628.75 3.518 L 626.25 4.961 Z " fill="rgb(209,209,209)"/></g><g id="roof-detail-left"><path d=" M 558.75 36.715 L 558.75 7.848 L 556.25 6.404 L 556.25 35.272 L 558.75 36.715 Z " fill="rgb(162,162,162)"/><path d=" M 498.75 2.074 L 498.75 -26.793 L 496.25 -28.237 L 496.25 0.631 L 498.75 2.074 Z " fill="rgb(162,162,162)"/><path d=" M 528.75 19.395 L 528.75 -9.473 L 526.25 -10.916 L 526.25 17.951 L 528.75 19.395 Z " fill="rgb(162,162,162)"/><path d=" M 468.75 -15.246 L 468.75 -44.114 L 466.25 -45.557 L 466.25 -16.69 L 468.75 -15.246 Z " fill="rgb(162,162,162)"/><path d=" M 543.75 28.055 L 543.75 -0.812 L 541.25 -2.256 L 541.25 26.612 L 543.75 28.055 Z " fill="rgb(162,162,162)"/><path d=" M 483.75 -6.586 L 483.75 -35.453 L 481.25 -36.897 L 481.25 -8.029 L 483.75 -6.586 Z " fill="rgb(162,162,162)"/><path d=" M 513.75 10.735 L 513.75 -18.133 L 511.25 -19.576 L 511.25 9.291 L 513.75 10.735 Z " fill="rgb(162,162,162)"/><path d=" M 453.75 -23.906 L 453.75 -52.774 L 451.25 -54.217 L 451.25 -25.35 L 453.75 -23.906 Z " fill="rgb(162,162,162)"/><path d=" M 553.75 33.829 L 553.75 4.961 L 551.25 3.518 L 551.25 32.385 L 553.75 33.829 Z " fill="rgb(162,162,162)"/><path d=" M 493.75 -0.812 L 493.75 -29.68 L 491.25 -31.123 L 491.25 -2.256 L 493.75 -0.812 Z " fill="rgb(162,162,162)"/><path d=" M 523.75 16.508 L 523.75 -12.359 L 521.25 -13.803 L 521.25 15.065 L 523.75 16.508 Z " fill="rgb(162,162,162)"/><path d=" M 463.75 -18.133 L 463.75 -47 L 461.25 -48.444 L 461.25 -19.576 L 463.75 -18.133 Z " fill="rgb(162,162,162)"/><path d=" M 538.75 25.168 L 538.75 -3.699 L 536.25 -5.143 L 536.25 23.725 L 538.75 25.168 Z " fill="rgb(162,162,162)"/><path d=" M 478.75 -9.473 L 478.75 -38.34 L 476.25 -39.784 L 476.25 -10.916 L 478.75 -9.473 Z " fill="rgb(162,162,162)"/><path d=" M 508.75 7.848 L 508.75 -21.02 L 506.25 -22.463 L 506.25 6.404 L 508.75 7.848 Z " fill="rgb(162,162,162)"/><path d=" M 548.75 30.942 L 548.75 2.074 L 546.25 0.631 L 546.25 29.498 L 548.75 30.942 Z " fill="rgb(162,162,162)"/><path d=" M 488.75 -3.699 L 488.75 -32.567 L 486.25 -34.01 L 486.25 -5.143 L 488.75 -3.699 Z " fill="rgb(162,162,162)"/><path d=" M 518.75 13.621 L 518.75 -15.246 L 516.25 -16.69 L 516.25 12.178 L 518.75 13.621 Z " fill="rgb(162,162,162)"/><path d=" M 458.75 -21.02 L 458.75 -49.887 L 456.25 -51.331 L 456.25 -22.463 L 458.75 -21.02 Z " fill="rgb(162,162,162)"/><path d=" M 533.75 22.282 L 533.75 -6.586 L 531.25 -8.029 L 531.25 20.838 L 533.75 22.282 Z " fill="rgb(162,162,162)"/><path d=" M 473.75 -12.359 L 473.75 -41.227 L 471.25 -42.67 L 471.25 -13.803 L 473.75 -12.359 Z " fill="rgb(162,162,162)"/><path d=" M 503.75 4.961 L 503.75 -23.906 L 501.25 -25.35 L 501.25 3.518 L 503.75 4.961 Z " fill="rgb(162,162,162)"/><path d=" M 453.75 -23.906 L 453.75 -52.774 L 451.25 -54.217 L 451.25 -25.35 L 453.75 -23.906 Z " fill="rgb(162,162,162)"/><path d=" M 393.75 -58.547 L 393.75 -87.415 L 391.25 -88.858 L 391.25 -59.991 L 393.75 -58.547 Z " fill="rgb(162,162,162)"/><path d=" M 423.75 -41.227 L 423.75 -70.094 L 421.25 -71.538 L 421.25 -42.67 L 423.75 -41.227 Z " fill="rgb(162,162,162)"/><path d=" M 363.75 -75.868 L 363.75 -104.735 L 361.25 -106.179 L 361.25 -77.311 L 363.75 -75.868 Z " fill="rgb(162,162,162)"/><path d=" M 438.75 -32.567 L 438.75 -61.434 L 436.25 -62.878 L 436.25 -34.01 L 438.75 -32.567 Z " fill="rgb(162,162,162)"/><path d=" M 378.75 -67.208 L 378.75 -96.075 L 376.25 -97.519 L 376.25 -68.651 L 378.75 -67.208 Z " fill="rgb(162,162,162)"/><path d=" M 408.75 -49.887 L 408.75 -78.755 L 406.25 -80.198 L 406.25 -51.331 L 408.75 -49.887 Z " fill="rgb(162,162,162)"/><path d=" M 348.75 -84.528 L 348.75 -113.396 L 346.25 -114.839 L 346.25 -85.972 L 348.75 -84.528 Z " fill="rgb(162,162,162)"/><path d=" M 448.75 -26.793 L 448.75 -55.661 L 446.25 -57.104 L 446.25 -28.237 L 448.75 -26.793 Z " fill="rgb(162,162,162)"/><path d=" M 388.75 -61.434 L 388.75 -90.302 L 386.25 -91.745 L 386.25 -62.878 L 388.75 -61.434 Z " fill="rgb(162,162,162)"/><path d=" M 418.75 -44.114 L 418.75 -72.981 L 416.25 -74.425 L 416.25 -45.557 L 418.75 -44.114 Z " fill="rgb(162,162,162)"/><path d=" M 358.75 -78.755 L 358.75 -107.622 L 356.25 -109.066 L 356.25 -80.198 L 358.75 -78.755 Z " fill="rgb(162,162,162)"/><path d=" M 433.75 -35.453 L 433.75 -64.321 L 431.25 -65.764 L 431.25 -36.897 L 433.75 -35.453 Z " fill="rgb(162,162,162)"/><path d=" M 373.75 -70.094 L 373.75 -98.962 L 371.25 -100.405 L 371.25 -71.538 L 373.75 -70.094 Z " fill="rgb(162,162,162)"/><path d=" M 403.75 -52.774 L 403.75 -81.641 L 401.25 -83.085 L 401.25 -54.217 L 403.75 -52.774 Z " fill="rgb(162,162,162)"/><path d=" M 443.75 -29.68 L 443.75 -58.547 L 441.25 -59.991 L 441.25 -31.123 L 443.75 -29.68 Z " fill="rgb(162,162,162)"/><path d=" M 383.75 -64.321 L 383.75 -93.188 L 381.25 -94.632 L 381.25 -65.764 L 383.75 -64.321 Z " fill="rgb(162,162,162)"/><path d=" M 413.75 -47 L 413.75 -75.868 L 411.25 -77.311 L 411.25 -48.444 L 413.75 -47 Z " fill="rgb(162,162,162)"/><path d=" M 353.75 -81.641 L 353.75 -110.509 L 351.25 -111.952 L 351.25 -83.085 L 353.75 -81.641 Z " fill="rgb(162,162,162)"/><path d=" M 428.75 -38.34 L 428.75 -67.208 L 426.25 -68.651 L 426.25 -39.784 L 428.75 -38.34 Z " fill="rgb(162,162,162)"/><path d=" M 368.75 -72.981 L 368.75 -101.849 L 366.25 -103.292 L 366.25 -74.425 L 368.75 -72.981 Z " fill="rgb(162,162,162)"/><path d=" M 398.75 -55.661 L 398.75 -84.528 L 396.25 -85.972 L 396.25 -57.104 L 398.75 -55.661 Z " fill="rgb(162,162,162)"/><path d=" M 348.75 -84.528 L 348.75 -113.396 L 346.25 -114.839 L 346.25 -85.972 L 348.75 -84.528 Z " fill="rgb(162,162,162)"/><path d=" M 333.75 -93.188 L 333.75 -122.056 L 331.25 -123.499 L 331.25 -94.632 L 333.75 -93.188 Z " fill="rgb(162,162,162)"/><path d=" M 343.75 -87.415 L 343.75 -116.282 L 341.25 -117.726 L 341.25 -88.858 L 343.75 -87.415 Z " fill="rgb(162,162,162)"/><path d=" M 328.75 -96.075 L 328.75 -124.943 L 326.25 -126.386 L 326.25 -97.519 L 328.75 -96.075 Z " fill="rgb(162,162,162)"/><path d=" M 338.75 -90.302 L 338.75 -119.169 L 336.25 -120.613 L 336.25 -91.745 L 338.75 -90.302 Z " fill="rgb(162,162,162)"/><path d=" M 323.75 -98.962 L 323.75 -127.829 L 321.25 -129.273 L 321.25 -100.405 L 323.75 -98.962 Z " fill="rgb(162,162,162)"/></g></g></svg>