<?xml version="1.0" standalone="no"?><!-- Generator: Gravit.io --><svg xmlns="http://www.w3.org/2000/svg" xmlns:xlink="http://www.w3.org/1999/xlink" style="isolation:isolate" viewBox="315 60.44 360 254.216" width="360" height="254.216"><g id="25parkplace-roof"><path d=" M 565 268.286 L 565 314.656 L 675 251.147 L 675 204.778 L 565 268.286 Z " fill="rgb(232,232,232)"/><path d=" M 565 268.286 L 565 314.474 L 315 170.137 L 315 123.949 L 565 268.286 Z " fill="rgb(209,209,209)"/><path d=" M 315 123.949 L 425 60.44 L 675 204.778 L 565 268.286 L 315 123.949 Z " fill="rgb(249,249,249)"/><path d=" M 335 123.949 L 565 256.739 L 655 204.959 L 425 72.169 L 335 123.949 Z " fill="rgb(242,242,242)"/><g id="roof-detail-right"><path d=" M 571.25 302.206 L 571.25 273.338 L 573.75 271.895 L 573.75 300.762 L 571.25 302.206 Z " fill="rgb(209,209,209)"/><path d=" M 631.25 267.565 L 631.25 238.697 L 633.75 237.254 L 633.75 266.121 L 631.25 267.565 Z " fill="rgb(209,209,209)"/><path d=" M 601.25 284.885 L 601.25 256.018 L 603.75 254.574 L 603.75 283.442 L 601.25 284.885 Z " fill="rgb(209,209,209)"/><path d=" M 661.25 250.244 L 661.25 221.377 L 663.75 219.933 L 663.75 248.801 L 661.25 250.244 Z " fill="rgb(209,209,209)"/><path d=" M 586.25 293.545 L 586.25 264.678 L 588.75 263.235 L 588.75 292.102 L 586.25 293.545 Z " fill="rgb(209,209,209)"/><path d=" M 646.25 258.904 L 646.25 230.037 L 648.75 228.594 L 648.75 257.461 L 646.25 258.904 Z " fill="rgb(209,209,209)"/><path d=" M 616.25 276.225 L 616.25 247.357 L 618.75 245.914 L 618.75 274.782 L 616.25 276.225 Z " fill="rgb(209,209,209)"/><path d=" M 576.25 299.319 L 576.25 270.451 L 578.75 269.008 L 578.75 297.876 L 576.25 299.319 Z " fill="rgb(209,209,209)"/><path d=" M 636.25 264.678 L 636.25 235.81 L 638.75 234.367 L 638.75 263.235 L 636.25 264.678 Z " fill="rgb(209,209,209)"/><path d=" M 606.25 281.998 L 606.25 253.131 L 608.75 251.688 L 608.75 280.555 L 606.25 281.998 Z " fill="rgb(209,209,209)"/><path d=" M 666.25 247.357 L 666.25 218.49 L 668.75 217.047 L 668.75 245.914 L 666.25 247.357 Z " fill="rgb(209,209,209)"/><path d=" M 591.25 290.659 L 591.25 261.791 L 593.75 260.348 L 593.75 289.215 L 591.25 290.659 Z " fill="rgb(209,209,209)"/><path d=" M 651.25 256.018 L 651.25 227.15 L 653.75 225.707 L 653.75 254.574 L 651.25 256.018 Z " fill="rgb(209,209,209)"/><path d=" M 621.25 273.338 L 621.25 244.471 L 623.75 243.027 L 623.75 271.895 L 621.25 273.338 Z " fill="rgb(209,209,209)"/><path d=" M 581.25 296.432 L 581.25 267.565 L 583.75 266.121 L 583.75 294.989 L 581.25 296.432 Z " fill="rgb(209,209,209)"/><path d=" M 641.25 261.791 L 641.25 232.924 L 643.75 231.48 L 643.75 260.348 L 641.25 261.791 Z " fill="rgb(209,209,209)"/><path d=" M 611.25 279.112 L 611.25 250.244 L 613.75 248.801 L 613.75 277.668 L 611.25 279.112 Z " fill="rgb(209,209,209)"/><path d=" M 596.25 287.772 L 596.25 258.904 L 598.75 257.461 L 598.75 286.329 L 596.25 287.772 Z " fill="rgb(209,209,209)"/><path d=" M 656.25 253.131 L 656.25 224.263 L 658.75 222.82 L 658.75 251.688 L 656.25 253.131 Z " fill="rgb(209,209,209)"/><path d=" M 626.25 270.451 L 626.25 241.584 L 628.75 240.141 L 628.75 269.008 L 626.25 270.451 Z " fill="rgb(209,209,209)"/></g><g id="roof-detail-left"><path d=" M 558.75 302.206 L 558.75 273.338 L 556.25 271.895 L 556.25 300.762 L 558.75 302.206 Z " fill="rgb(162,162,162)"/><path d=" M 498.75 267.565 L 498.75 238.697 L 496.25 237.254 L 496.25 266.121 L 498.75 267.565 Z " fill="rgb(162,162,162)"/><path d=" M 528.75 284.885 L 528.75 256.018 L 526.25 254.574 L 526.25 283.442 L 528.75 284.885 Z " fill="rgb(162,162,162)"/><path d=" M 468.75 250.244 L 468.75 221.377 L 466.25 219.933 L 466.25 248.801 L 468.75 250.244 Z " fill="rgb(162,162,162)"/><path d=" M 543.75 293.545 L 543.75 264.678 L 541.25 263.235 L 541.25 292.102 L 543.75 293.545 Z " fill="rgb(162,162,162)"/><path d=" M 483.75 258.904 L 483.75 230.037 L 481.25 228.594 L 481.25 257.461 L 483.75 258.904 Z " fill="rgb(162,162,162)"/><path d=" M 513.75 276.225 L 513.75 247.357 L 511.25 245.914 L 511.25 274.782 L 513.75 276.225 Z " fill="rgb(162,162,162)"/><path d=" M 453.75 241.584 L 453.75 212.716 L 451.25 211.273 L 451.25 240.141 L 453.75 241.584 Z " fill="rgb(162,162,162)"/><path d=" M 553.75 299.319 L 553.75 270.451 L 551.25 269.008 L 551.25 297.876 L 553.75 299.319 Z " fill="rgb(162,162,162)"/><path d=" M 493.75 264.678 L 493.75 235.81 L 491.25 234.367 L 491.25 263.235 L 493.75 264.678 Z " fill="rgb(162,162,162)"/><path d=" M 523.75 281.998 L 523.75 253.131 L 521.25 251.688 L 521.25 280.555 L 523.75 281.998 Z " fill="rgb(162,162,162)"/><path d=" M 463.75 247.357 L 463.75 218.49 L 461.25 217.047 L 461.25 245.914 L 463.75 247.357 Z " fill="rgb(162,162,162)"/><path d=" M 538.75 290.659 L 538.75 261.791 L 536.25 260.348 L 536.25 289.215 L 538.75 290.659 Z " fill="rgb(162,162,162)"/><path d=" M 478.75 256.018 L 478.75 227.15 L 476.25 225.707 L 476.25 254.574 L 478.75 256.018 Z " fill="rgb(162,162,162)"/><path d=" M 508.75 273.338 L 508.75 244.471 L 506.25 243.027 L 506.25 271.895 L 508.75 273.338 Z " fill="rgb(162,162,162)"/><path d=" M 548.75 296.432 L 548.75 267.565 L 546.25 266.121 L 546.25 294.989 L 548.75 296.432 Z " fill="rgb(162,162,162)"/><path d=" M 488.75 261.791 L 488.75 232.924 L 486.25 231.48 L 486.25 260.348 L 488.75 261.791 Z " fill="rgb(162,162,162)"/><path d=" M 518.75 279.112 L 518.75 250.244 L 516.25 248.801 L 516.25 277.668 L 518.75 279.112 Z " fill="rgb(162,162,162)"/><path d=" M 458.75 244.471 L 458.75 215.603 L 456.25 214.16 L 456.25 243.027 L 458.75 244.471 Z " fill="rgb(162,162,162)"/><path d=" M 533.75 287.772 L 533.75 258.904 L 531.25 257.461 L 531.25 286.329 L 533.75 287.772 Z " fill="rgb(162,162,162)"/><path d=" M 473.75 253.131 L 473.75 224.263 L 471.25 222.82 L 471.25 251.688 L 473.75 253.131 Z " fill="rgb(162,162,162)"/><path d=" M 503.75 270.451 L 503.75 241.584 L 501.25 240.141 L 501.25 269.008 L 503.75 270.451 Z " fill="rgb(162,162,162)"/><path d=" M 453.75 241.584 L 453.75 212.716 L 451.25 211.273 L 451.25 240.141 L 453.75 241.584 Z " fill="rgb(162,162,162)"/><path d=" M 393.75 206.943 L 393.75 178.075 L 391.25 176.632 L 391.25 205.5 L 393.75 206.943 Z " fill="rgb(162,162,162)"/><path d=" M 423.75 224.263 L 423.75 195.396 L 421.25 193.953 L 421.25 222.82 L 423.75 224.263 Z " fill="rgb(162,162,162)"/><path d=" M 363.75 189.622 L 363.75 160.755 L 361.25 159.312 L 361.25 188.179 L 363.75 189.622 Z " fill="rgb(162,162,162)"/><path d=" M 438.75 232.924 L 438.75 204.056 L 436.25 202.613 L 436.25 231.48 L 438.75 232.924 Z " fill="rgb(162,162,162)"/><path d=" M 378.75 198.283 L 378.75 169.415 L 376.25 167.972 L 376.25 196.839 L 378.75 198.283 Z " fill="rgb(162,162,162)"/><path d=" M 408.75 215.603 L 408.75 186.736 L 406.25 185.292 L 406.25 214.16 L 408.75 215.603 Z " fill="rgb(162,162,162)"/><path d=" M 348.75 180.962 L 348.75 152.095 L 346.25 150.651 L 346.25 179.519 L 348.75 180.962 Z " fill="rgb(162,162,162)"/><path d=" M 448.75 238.697 L 448.75 209.83 L 446.25 208.386 L 446.25 237.254 L 448.75 238.697 Z " fill="rgb(162,162,162)"/><path d=" M 388.75 204.056 L 388.75 175.189 L 386.25 173.745 L 386.25 202.613 L 388.75 204.056 Z " fill="rgb(162,162,162)"/><path d=" M 418.75 221.377 L 418.75 192.509 L 416.25 191.066 L 416.25 219.933 L 418.75 221.377 Z " fill="rgb(162,162,162)"/><path d=" M 358.75 186.736 L 358.75 157.868 L 356.25 156.425 L 356.25 185.292 L 358.75 186.736 Z " fill="rgb(162,162,162)"/><path d=" M 433.75 230.037 L 433.75 201.169 L 431.25 199.726 L 431.25 228.594 L 433.75 230.037 Z " fill="rgb(162,162,162)"/><path d=" M 373.75 195.396 L 373.75 166.528 L 371.25 165.085 L 371.25 193.953 L 373.75 195.396 Z " fill="rgb(162,162,162)"/><path d=" M 403.75 212.716 L 403.75 183.849 L 401.25 182.406 L 401.25 211.273 L 403.75 212.716 Z " fill="rgb(162,162,162)"/><path d=" M 443.75 235.81 L 443.75 206.943 L 441.25 205.5 L 441.25 234.367 L 443.75 235.81 Z " fill="rgb(162,162,162)"/><path d=" M 383.75 201.169 L 383.75 172.302 L 381.25 170.859 L 381.25 199.726 L 383.75 201.169 Z " fill="rgb(162,162,162)"/><path d=" M 413.75 218.49 L 413.75 189.622 L 411.25 188.179 L 411.25 217.047 L 413.75 218.49 Z " fill="rgb(162,162,162)"/><path d=" M 353.75 183.849 L 353.75 154.981 L 351.25 153.538 L 351.25 182.406 L 353.75 183.849 Z " fill="rgb(162,162,162)"/><path d=" M 428.75 227.15 L 428.75 198.283 L 426.25 196.839 L 426.25 225.707 L 428.75 227.15 Z " fill="rgb(162,162,162)"/><path d=" M 368.75 192.509 L 368.75 163.642 L 366.25 162.198 L 366.25 191.066 L 368.75 192.509 Z " fill="rgb(162,162,162)"/><path d=" M 398.75 209.83 L 398.75 180.962 L 396.25 179.519 L 396.25 208.386 L 398.75 209.83 Z " fill="rgb(162,162,162)"/><path d=" M 348.75 180.962 L 348.75 152.095 L 346.25 150.651 L 346.25 179.519 L 348.75 180.962 Z " fill="rgb(162,162,162)"/><path d=" M 333.75 172.302 L 333.75 143.434 L 331.25 141.991 L 331.25 170.859 L 333.75 172.302 Z " fill="rgb(162,162,162)"/><path d=" M 343.75 178.075 L 343.75 149.208 L 341.25 147.765 L 341.25 176.632 L 343.75 178.075 Z " fill="rgb(162,162,162)"/><path d=" M 328.75 169.415 L 328.75 140.548 L 326.25 139.104 L 326.25 167.972 L 328.75 169.415 Z " fill="rgb(162,162,162)"/><path d=" M 338.75 175.189 L 338.75 146.321 L 336.25 144.878 L 336.25 173.745 L 338.75 175.189 Z " fill="rgb(162,162,162)"/><path d=" M 323.75 166.528 L 323.75 137.661 L 321.25 136.218 L 321.25 165.085 L 323.75 166.528 Z " fill="rgb(162,162,162)"/></g></g></svg>