<?xml version="1.0" standalone="no"?><!-- Generator: Gravit.io --><svg xmlns="http://www.w3.org/2000/svg" xmlns:xlink="http://www.w3.org/1999/xlink" style="isolation:isolate" viewBox="275 643.746 440 294.449" width="440" height="294.449"><g id="25parkplace-base"><path d=" M 565 932.421 L 715 846 L 425 678.568 L 275 764.989 L 565 932.421 Z " fill="rgb(162,162,162)"/><path d=" M 565 851.592 L 565 874.867 L 675 811.359 L 675 788.083 L 565 851.592 Z " fill="rgb(232,232,232)"/><path d=" M 565 851.592 L 565 874.686 L 315 730.348 L 315 707.254 L 565 851.592 Z " fill="rgb(209,209,209)"/><path d=" M 565 898.258 L 655 846.296 L 655 822.906 L 565 874.867 L 565 898.258 Z " fill="rgb(116,116,116)"/><path d=" M 335 765.467 L 335 741.895 L 565 874.686 L 565 898.258 L 335 765.467 Z " fill="rgb(116,116,116)"/><g id="base-right"><path d=" M 675 846 L 675 811.359 L 670 814.245 L 670 848.886 L 675 846 Z " fill="rgb(232,232,232)"/><path d=" M 460 848.705 L 465 845.818 L 465 816.951 L 460 814.064 L 460 848.705 Z " fill="rgb(232,232,232)"/><path d=" M 355 787.853 L 360 784.966 L 360 756.099 L 355 753.212 L 355 787.853 Z " fill="rgb(232,232,232)"/><path d=" M 320 767.876 L 325 764.989 L 325 736.122 L 320 733.235 L 320 767.876 Z " fill="rgb(232,232,232)"/><path d=" M 640 866.177 L 640 831.536 L 635 834.422 L 635 869.063 L 640 866.177 Z " fill="rgb(232,232,232)"/><path d=" M 495 868.912 L 500 866.025 L 500 837.158 L 495 834.271 L 495 868.912 Z " fill="rgb(232,232,232)"/><path d=" M 390 808.29 L 395 805.404 L 395 776.536 L 390 773.649 L 390 808.29 Z " fill="rgb(232,232,232)"/><path d=" M 605 886.354 L 605 851.713 L 600 854.599 L 600 889.24 L 605 886.354 Z " fill="rgb(232,232,232)"/><path d=" M 530 889.119 L 535 886.233 L 535 857.365 L 530 854.478 L 530 889.119 Z " fill="rgb(232,232,232)"/><path d=" M 425 828.498 L 430 825.611 L 430 796.743 L 425 793.857 L 425 828.498 Z " fill="rgb(232,232,232)"/><path d=" M 570 906.621 L 570 871.98 L 565 874.867 L 565 909.508 L 570 906.621 Z " fill="rgb(232,232,232)"/></g><g id="base-left"><path d=" M 525 886.233 L 525 851.592 L 530 854.478 L 530 889.119 L 525 886.233 Z " fill="rgb(209,209,209)"/><path d=" M 420 825.611 L 420 790.97 L 425 793.857 L 425 828.498 L 420 825.611 Z " fill="rgb(209,209,209)"/><path d=" M 490 866.025 L 490 831.384 L 495 834.271 L 495 868.912 L 490 866.025 Z " fill="rgb(209,209,209)"/><path d=" M 385 805.404 L 385 770.763 L 390 773.649 L 390 808.29 L 385 805.404 Z " fill="rgb(209,209,209)"/><path d=" M 455 845.818 L 455 811.177 L 460 814.064 L 460 848.705 L 455 845.818 Z " fill="rgb(209,209,209)"/><path d=" M 350 784.966 L 350 750.325 L 355 753.212 L 355 787.853 L 350 784.966 Z " fill="rgb(209,209,209)"/><path d=" M 315 764.989 L 315 730.348 L 320 733.235 L 320 767.876 L 315 764.989 Z " fill="rgb(209,209,209)"/><path d=" M 670 848.886 L 665 846 L 665 817.132 L 670 814.245 L 670 848.886 Z " fill="rgb(209,209,209)"/><path d=" M 635 869.063 L 630 866.177 L 630 837.309 L 635 834.422 L 635 869.063 Z " fill="rgb(209,209,209)"/><path d=" M 600 889.24 L 595 886.354 L 595 857.486 L 600 854.599 L 600 889.24 Z " fill="rgb(209,209,209)"/><path d=" M 565 909.327 L 560 906.44 L 560 871.799 L 565 874.686 L 565 909.327 Z " fill="rgb(209,209,209)"/></g><path d=" M 715 846 L 715 851.773 L 565 938.194 L 565 932.421 L 715 846 Z " fill="rgb(209,209,209)"/><path d=" M 565 938.194 L 565 932.421 L 275 764.989 L 275 770.763 L 565 938.194 Z " fill="rgb(139,139,139)"/><path d=" M 315 707.254 L 425 643.746 L 675 788.083 L 565 851.592 L 315 707.254 Z " fill="rgb(249,249,249)"/></g></svg>