<?xml version="1.0" standalone="no"?><!-- Generator: Gravit.io --><svg xmlns="http://www.w3.org/2000/svg" xmlns:xlink="http://www.w3.org/1999/xlink" style="isolation:isolate" viewBox="315 106.81 360 744.782" width="360" height="744.782"><g id="25parkplace-body"><path d=" M 565 314.656 L 565 851.592 L 675 788.083 L 675 251.147 L 565 314.656 Z " fill="rgb(232,232,232)"/><path d=" M 565 314.656 L 565 851.592 L 315 707.254 L 315 170.318 L 565 314.656 Z " fill="rgb(209,209,209)"/><path d=" M 315 170.318 L 425 106.81 L 675 251.147 L 565 314.656 L 315 170.318 Z " fill="rgb(249,249,249)"/><g id="windows-left"><path d=" M 559 346.625 L 551.5 342.294 L 551.5 365.389 L 559 369.719 L 559 346.625 Z " fill="rgb(116,116,116)"/><path d=" M 499 311.984 L 491.5 307.653 L 491.5 330.747 L 499 335.078 L 499 311.984 Z " fill="rgb(116,116,116)"/><path d=" M 529 329.304 L 521.5 324.974 L 521.5 348.068 L 529 352.398 L 529 329.304 Z " fill="rgb(116,116,116)"/><path d=" M 469 294.663 L 461.5 290.333 L 461.5 313.427 L 469 317.757 L 469 294.663 Z " fill="rgb(116,116,116)"/><path d=" M 549 340.851 L 541.5 336.521 L 541.5 359.615 L 549 363.945 L 549 340.851 Z " fill="rgb(116,116,116)"/><path d=" M 489 306.21 L 481.5 301.88 L 481.5 324.974 L 489 329.304 L 489 306.21 Z " fill="rgb(116,116,116)"/><path d=" M 519 323.531 L 511.5 319.2 L 511.5 342.295 L 519 346.625 L 519 323.531 Z " fill="rgb(116,116,116)"/><path d=" M 459 288.89 L 451.5 284.559 L 451.5 307.653 L 459 311.984 L 459 288.89 Z " fill="rgb(116,116,116)"/><path d=" M 539 335.078 L 531.5 330.748 L 531.5 353.842 L 539 358.172 L 539 335.078 Z " fill="rgb(116,116,116)"/><path d=" M 479 300.437 L 471.5 296.106 L 471.5 319.201 L 479 323.531 L 479 300.437 Z " fill="rgb(116,116,116)"/><path d=" M 509 317.757 L 501.5 313.427 L 501.5 336.521 L 509 340.851 L 509 317.757 Z " fill="rgb(116,116,116)"/><path d=" M 449 283.116 L 441.5 278.786 L 441.5 301.88 L 449 306.21 L 449 283.116 Z " fill="rgb(116,116,116)"/><path d=" M 389 248.475 L 381.5 244.145 L 381.5 267.239 L 389 271.569 L 389 248.475 Z " fill="rgb(116,116,116)"/><path d=" M 419 265.796 L 411.5 261.466 L 411.5 284.559 L 419 288.89 L 419 265.796 Z " fill="rgb(116,116,116)"/><path d=" M 359 231.155 L 351.5 226.824 L 351.5 249.918 L 359 254.249 L 359 231.155 Z " fill="rgb(116,116,116)"/><path d=" M 439 277.343 L 431.5 273.012 L 431.5 296.107 L 439 300.437 L 439 277.343 Z " fill="rgb(116,116,116)"/><path d=" M 379 242.702 L 371.5 238.371 L 371.5 261.465 L 379 265.796 L 379 242.702 Z " fill="rgb(116,116,116)"/><path d=" M 409 260.022 L 401.5 255.692 L 401.5 278.786 L 409 283.116 L 409 260.022 Z " fill="rgb(116,116,116)"/><path d=" M 349 225.381 L 341.5 221.051 L 341.5 244.145 L 349 248.475 L 349 225.381 Z " fill="rgb(116,116,116)"/><path d=" M 429 271.569 L 421.5 267.239 L 421.5 290.333 L 429 294.663 L 429 271.569 Z " fill="rgb(116,116,116)"/><path d=" M 369 236.928 L 361.5 232.598 L 361.5 255.692 L 369 260.022 L 369 236.928 Z " fill="rgb(116,116,116)"/><path d=" M 399 254.249 L 391.5 249.918 L 391.5 273.012 L 399 277.343 L 399 254.249 Z " fill="rgb(116,116,116)"/><path d=" M 339 219.608 L 331.5 215.277 L 331.5 238.371 L 339 242.702 L 339 219.608 Z " fill="rgb(116,116,116)"/><path d=" M 329 213.834 L 321.5 209.504 L 321.5 232.598 L 329 236.928 L 329 213.834 Z " fill="rgb(116,116,116)"/><path d=" M 559 639.259 L 551.5 634.929 L 551.5 658.023 L 559 662.353 L 559 639.259 Z " fill="rgb(116,116,116)"/><path d=" M 499 604.618 L 491.5 600.288 L 491.5 623.382 L 499 627.712 L 499 604.618 Z " fill="rgb(116,116,116)"/><path d=" M 529 621.939 L 521.5 617.609 L 521.5 640.703 L 529 645.033 L 529 621.939 Z " fill="rgb(116,116,116)"/><path d=" M 469 587.298 L 461.5 582.968 L 461.5 606.062 L 469 610.392 L 469 587.298 Z " fill="rgb(116,116,116)"/><path d=" M 549 633.486 L 541.5 629.156 L 541.5 652.25 L 549 656.58 L 549 633.486 Z " fill="rgb(116,116,116)"/><path d=" M 489 598.845 L 481.5 594.515 L 481.5 617.609 L 489 621.939 L 489 598.845 Z " fill="rgb(116,116,116)"/><path d=" M 519 616.165 L 511.5 611.835 L 511.5 634.929 L 519 639.259 L 519 616.165 Z " fill="rgb(116,116,116)"/><path d=" M 459 581.524 L 451.5 577.194 L 451.5 600.288 L 459 604.618 L 459 581.524 Z " fill="rgb(116,116,116)"/><path d=" M 539 627.712 L 531.5 623.382 L 531.5 646.476 L 539 650.806 L 539 627.712 Z " fill="rgb(116,116,116)"/><path d=" M 479 593.071 L 471.5 588.741 L 471.5 611.835 L 479 616.165 L 479 593.071 Z " fill="rgb(116,116,116)"/><path d=" M 509 610.392 L 501.5 606.062 L 501.5 629.156 L 509 633.486 L 509 610.392 Z " fill="rgb(116,116,116)"/><path d=" M 449 575.751 L 441.5 571.421 L 441.5 594.515 L 449 598.845 L 449 575.751 Z " fill="rgb(116,116,116)"/><path d=" M 389 541.11 L 381.5 536.78 L 381.5 559.874 L 389 564.204 L 389 541.11 Z " fill="rgb(116,116,116)"/><path d=" M 419 558.43 L 411.5 554.1 L 411.5 577.194 L 419 581.524 L 419 558.43 Z " fill="rgb(116,116,116)"/><path d=" M 359 523.789 L 351.5 519.459 L 351.5 542.553 L 359 546.883 L 359 523.789 Z " fill="rgb(116,116,116)"/><path d=" M 439 569.977 L 431.5 565.647 L 431.5 588.741 L 439 593.071 L 439 569.977 Z " fill="rgb(116,116,116)"/><path d=" M 379 535.336 L 371.5 531.006 L 371.5 554.1 L 379 558.43 L 379 535.336 Z " fill="rgb(116,116,116)"/><path d=" M 409 552.657 L 401.5 548.327 L 401.5 571.421 L 409 575.751 L 409 552.657 Z " fill="rgb(116,116,116)"/><path d=" M 349 518.016 L 341.5 513.686 L 341.5 536.78 L 349 541.11 L 349 518.016 Z " fill="rgb(116,116,116)"/><path d=" M 429 564.204 L 421.5 559.874 L 421.5 582.968 L 429 587.298 L 429 564.204 Z " fill="rgb(116,116,116)"/><path d=" M 369 529.563 L 361.5 525.233 L 361.5 548.327 L 369 552.657 L 369 529.563 Z " fill="rgb(116,116,116)"/><path d=" M 399 546.883 L 391.5 542.553 L 391.5 565.647 L 399 569.977 L 399 546.883 Z " fill="rgb(116,116,116)"/><path d=" M 339 512.242 L 331.5 507.912 L 331.5 531.006 L 339 535.336 L 339 512.242 Z " fill="rgb(116,116,116)"/><path d=" M 329 506.469 L 321.5 502.139 L 321.5 525.233 L 329 529.563 L 329 506.469 Z " fill="rgb(116,116,116)"/><path d=" M 559 405.152 L 551.5 400.821 L 551.5 423.915 L 559 428.246 L 559 405.152 Z " fill="rgb(116,116,116)"/><path d=" M 499 370.511 L 491.5 366.18 L 491.5 389.274 L 499 393.605 L 499 370.511 Z " fill="rgb(116,116,116)"/><path d=" M 529 387.831 L 521.5 383.501 L 521.5 406.595 L 529 410.925 L 529 387.831 Z " fill="rgb(116,116,116)"/><path d=" M 469 353.19 L 461.5 348.86 L 461.5 371.954 L 469 376.284 L 469 353.19 Z " fill="rgb(116,116,116)"/><path d=" M 549 399.378 L 541.5 395.048 L 541.5 418.142 L 549 422.472 L 549 399.378 Z " fill="rgb(116,116,116)"/><path d=" M 489 364.737 L 481.5 360.407 L 481.5 383.501 L 489 387.831 L 489 364.737 Z " fill="rgb(116,116,116)"/><path d=" M 519 382.058 L 511.5 377.727 L 511.5 400.821 L 519 405.152 L 519 382.058 Z " fill="rgb(116,116,116)"/><path d=" M 459 347.417 L 451.5 343.086 L 451.5 366.18 L 459 370.511 L 459 347.417 Z " fill="rgb(116,116,116)"/><path d=" M 539 393.605 L 531.5 389.274 L 531.5 412.368 L 539 416.699 L 539 393.605 Z " fill="rgb(116,116,116)"/><path d=" M 479 358.964 L 471.5 354.633 L 471.5 377.727 L 479 382.058 L 479 358.964 Z " fill="rgb(116,116,116)"/><path d=" M 509 376.284 L 501.5 371.954 L 501.5 395.048 L 509 399.378 L 509 376.284 Z " fill="rgb(116,116,116)"/><path d=" M 449 341.643 L 441.5 337.313 L 441.5 360.407 L 449 364.737 L 449 341.643 Z " fill="rgb(116,116,116)"/><path d=" M 389 307.002 L 381.5 302.672 L 381.5 325.766 L 389 330.096 L 389 307.002 Z " fill="rgb(116,116,116)"/><path d=" M 419 324.323 L 411.5 319.992 L 411.5 343.086 L 419 347.417 L 419 324.323 Z " fill="rgb(116,116,116)"/><path d=" M 359 289.682 L 351.5 285.351 L 351.5 308.445 L 359 312.776 L 359 289.682 Z " fill="rgb(116,116,116)"/><path d=" M 439 335.87 L 431.5 331.539 L 431.5 354.633 L 439 358.964 L 439 335.87 Z " fill="rgb(116,116,116)"/><path d=" M 379 301.229 L 371.5 296.898 L 371.5 319.992 L 379 324.323 L 379 301.229 Z " fill="rgb(116,116,116)"/><path d=" M 409 318.549 L 401.5 314.219 L 401.5 337.313 L 409 341.643 L 409 318.549 Z " fill="rgb(116,116,116)"/><path d=" M 349 283.908 L 341.5 279.578 L 341.5 302.672 L 349 307.002 L 349 283.908 Z " fill="rgb(116,116,116)"/><path d=" M 429 330.096 L 421.5 325.766 L 421.5 348.86 L 429 353.19 L 429 330.096 Z " fill="rgb(116,116,116)"/><path d=" M 369 295.455 L 361.5 291.125 L 361.5 314.219 L 369 318.549 L 369 295.455 Z " fill="rgb(116,116,116)"/><path d=" M 399 312.776 L 391.5 308.445 L 391.5 331.539 L 399 335.87 L 399 312.776 Z " fill="rgb(116,116,116)"/><path d=" M 339 278.135 L 331.5 273.804 L 331.5 296.898 L 339 301.229 L 339 278.135 Z " fill="rgb(116,116,116)"/><path d=" M 329 272.361 L 321.5 268.031 L 321.5 291.125 L 329 295.455 L 329 272.361 Z " fill="rgb(116,116,116)"/><path d=" M 559 551.469 L 551.5 547.139 L 551.5 570.233 L 559 574.563 L 559 551.469 Z " fill="rgb(116,116,116)"/><path d=" M 499 516.828 L 491.5 512.498 L 491.5 535.592 L 499 539.922 L 499 516.828 Z " fill="rgb(116,116,116)"/><path d=" M 529 534.148 L 521.5 529.818 L 521.5 552.912 L 529 557.242 L 529 534.148 Z " fill="rgb(116,116,116)"/><path d=" M 469 499.507 L 461.5 495.177 L 461.5 518.271 L 469 522.601 L 469 499.507 Z " fill="rgb(116,116,116)"/><path d=" M 549 545.695 L 541.5 541.365 L 541.5 564.459 L 549 568.789 L 549 545.695 Z " fill="rgb(116,116,116)"/><path d=" M 489 511.054 L 481.5 506.724 L 481.5 529.818 L 489 534.148 L 489 511.054 Z " fill="rgb(116,116,116)"/><path d=" M 519 528.375 L 511.5 524.045 L 511.5 547.139 L 519 551.469 L 519 528.375 Z " fill="rgb(116,116,116)"/><path d=" M 459 493.734 L 451.5 489.404 L 451.5 512.498 L 459 516.828 L 459 493.734 Z " fill="rgb(116,116,116)"/><path d=" M 539 539.922 L 531.5 535.592 L 531.5 558.686 L 539 563.016 L 539 539.922 Z " fill="rgb(116,116,116)"/><path d=" M 479 505.281 L 471.5 500.951 L 471.5 524.045 L 479 528.375 L 479 505.281 Z " fill="rgb(116,116,116)"/><path d=" M 509 522.601 L 501.5 518.271 L 501.5 541.365 L 509 545.695 L 509 522.601 Z " fill="rgb(116,116,116)"/><path d=" M 449 487.96 L 441.5 483.63 L 441.5 506.724 L 449 511.054 L 449 487.96 Z " fill="rgb(116,116,116)"/><path d=" M 389 453.319 L 381.5 448.989 L 381.5 472.083 L 389 476.413 L 389 453.319 Z " fill="rgb(116,116,116)"/><path d=" M 419 470.64 L 411.5 466.31 L 411.5 489.404 L 419 493.734 L 419 470.64 Z " fill="rgb(116,116,116)"/><path d=" M 359 435.999 L 351.5 431.669 L 351.5 454.763 L 359 459.093 L 359 435.999 Z " fill="rgb(116,116,116)"/><path d=" M 439 482.187 L 431.5 477.857 L 431.5 500.951 L 439 505.281 L 439 482.187 Z " fill="rgb(116,116,116)"/><path d=" M 379 447.546 L 371.5 443.216 L 371.5 466.31 L 379 470.64 L 379 447.546 Z " fill="rgb(116,116,116)"/><path d=" M 409 464.866 L 401.5 460.536 L 401.5 483.63 L 409 487.96 L 409 464.866 Z " fill="rgb(116,116,116)"/><path d=" M 349 430.225 L 341.5 425.895 L 341.5 448.989 L 349 453.319 L 349 430.225 Z " fill="rgb(116,116,116)"/><path d=" M 429 476.413 L 421.5 472.083 L 421.5 495.177 L 429 499.507 L 429 476.413 Z " fill="rgb(116,116,116)"/><path d=" M 369 441.772 L 361.5 437.442 L 361.5 460.536 L 369 464.866 L 369 441.772 Z " fill="rgb(116,116,116)"/><path d=" M 399 459.093 L 391.5 454.763 L 391.5 477.857 L 399 482.187 L 399 459.093 Z " fill="rgb(116,116,116)"/><path d=" M 339 424.452 L 331.5 420.122 L 331.5 443.216 L 339 447.546 L 339 424.452 Z " fill="rgb(116,116,116)"/><path d=" M 329 418.678 L 321.5 414.348 L 321.5 437.442 L 329 441.772 L 329 418.678 Z " fill="rgb(116,116,116)"/><path d=" M 559 434.415 L 551.5 430.085 L 551.5 453.179 L 559 457.509 L 559 434.415 Z " fill="rgb(116,116,116)"/><path d=" M 499 399.774 L 491.5 395.444 L 491.5 418.538 L 499 422.868 L 499 399.774 Z " fill="rgb(116,116,116)"/><path d=" M 529 417.095 L 521.5 412.764 L 521.5 435.858 L 529 440.189 L 529 417.095 Z " fill="rgb(116,116,116)"/><path d=" M 469 382.454 L 461.5 378.123 L 461.5 401.217 L 469 405.548 L 469 382.454 Z " fill="rgb(116,116,116)"/><path d=" M 549 428.642 L 541.5 424.311 L 541.5 447.405 L 549 451.736 L 549 428.642 Z " fill="rgb(116,116,116)"/><path d=" M 489 394.001 L 481.5 389.67 L 481.5 412.764 L 489 417.095 L 489 394.001 Z " fill="rgb(116,116,116)"/><path d=" M 519 411.321 L 511.5 406.991 L 511.5 430.085 L 519 434.415 L 519 411.321 Z " fill="rgb(116,116,116)"/><path d=" M 459 376.68 L 451.5 372.35 L 451.5 395.444 L 459 399.774 L 459 376.68 Z " fill="rgb(116,116,116)"/><path d=" M 539 422.868 L 531.5 418.538 L 531.5 441.632 L 539 445.962 L 539 422.868 Z " fill="rgb(116,116,116)"/><path d=" M 479 388.227 L 471.5 383.897 L 471.5 406.991 L 479 411.321 L 479 388.227 Z " fill="rgb(116,116,116)"/><path d=" M 509 405.548 L 501.5 401.217 L 501.5 424.311 L 509 428.642 L 509 405.548 Z " fill="rgb(116,116,116)"/><path d=" M 449 370.907 L 441.5 366.576 L 441.5 389.67 L 449 394.001 L 449 370.907 Z " fill="rgb(116,116,116)"/><path d=" M 389 336.266 L 381.5 331.935 L 381.5 355.029 L 389 359.36 L 389 336.266 Z " fill="rgb(116,116,116)"/><path d=" M 419 353.586 L 411.5 349.256 L 411.5 372.35 L 419 376.68 L 419 353.586 Z " fill="rgb(116,116,116)"/><path d=" M 359 318.945 L 351.5 314.615 L 351.5 337.709 L 359 342.039 L 359 318.945 Z " fill="rgb(116,116,116)"/><path d=" M 439 365.133 L 431.5 360.803 L 431.5 383.897 L 439 388.227 L 439 365.133 Z " fill="rgb(116,116,116)"/><path d=" M 379 330.492 L 371.5 326.162 L 371.5 349.256 L 379 353.586 L 379 330.492 Z " fill="rgb(116,116,116)"/><path d=" M 409 347.813 L 401.5 343.482 L 401.5 366.576 L 409 370.907 L 409 347.813 Z " fill="rgb(116,116,116)"/><path d=" M 349 313.172 L 341.5 308.841 L 341.5 331.935 L 349 336.266 L 349 313.172 Z " fill="rgb(116,116,116)"/><path d=" M 429 359.36 L 421.5 355.029 L 421.5 378.123 L 429 382.454 L 429 359.36 Z " fill="rgb(116,116,116)"/><path d=" M 369 324.719 L 361.5 320.388 L 361.5 343.482 L 369 347.813 L 369 324.719 Z " fill="rgb(116,116,116)"/><path d=" M 399 342.039 L 391.5 337.709 L 391.5 360.803 L 399 365.133 L 399 342.039 Z " fill="rgb(116,116,116)"/><path d=" M 339 307.398 L 331.5 303.068 L 331.5 326.162 L 339 330.492 L 339 307.398 Z " fill="rgb(116,116,116)"/><path d=" M 329 301.625 L 321.5 297.294 L 321.5 320.388 L 329 324.719 L 329 301.625 Z " fill="rgb(116,116,116)"/><path d=" M 559 463.679 L 551.5 459.348 L 551.5 482.442 L 559 486.773 L 559 463.679 Z " fill="rgb(116,116,116)"/><path d=" M 499 429.038 L 491.5 424.707 L 491.5 447.801 L 499 452.132 L 499 429.038 Z " fill="rgb(116,116,116)"/><path d=" M 529 446.358 L 521.5 442.028 L 521.5 465.122 L 529 469.452 L 529 446.358 Z " fill="rgb(116,116,116)"/><path d=" M 469 411.717 L 461.5 407.387 L 461.5 430.481 L 469 434.811 L 469 411.717 Z " fill="rgb(116,116,116)"/><path d=" M 549 457.905 L 541.5 453.575 L 541.5 476.669 L 549 480.999 L 549 457.905 Z " fill="rgb(116,116,116)"/><path d=" M 489 423.264 L 481.5 418.934 L 481.5 442.028 L 489 446.358 L 489 423.264 Z " fill="rgb(116,116,116)"/><path d=" M 519 440.585 L 511.5 436.254 L 511.5 459.348 L 519 463.679 L 519 440.585 Z " fill="rgb(116,116,116)"/><path d=" M 459 405.943 L 451.5 401.613 L 451.5 424.707 L 459 429.038 L 459 405.943 Z " fill="rgb(116,116,116)"/><path d=" M 539 452.132 L 531.5 447.801 L 531.5 470.895 L 539 475.226 L 539 452.132 Z " fill="rgb(116,116,116)"/><path d=" M 479 417.491 L 471.5 413.16 L 471.5 436.254 L 479 440.585 L 479 417.491 Z " fill="rgb(116,116,116)"/><path d=" M 509 434.811 L 501.5 430.481 L 501.5 453.575 L 509 457.905 L 509 434.811 Z " fill="rgb(116,116,116)"/><path d=" M 449 400.17 L 441.5 395.84 L 441.5 418.934 L 449 423.264 L 449 400.17 Z " fill="rgb(116,116,116)"/><path d=" M 389 365.529 L 381.5 361.199 L 381.5 384.293 L 389 388.623 L 389 365.529 Z " fill="rgb(116,116,116)"/><path d=" M 419 382.85 L 411.5 378.519 L 411.5 401.613 L 419 405.944 L 419 382.85 Z " fill="rgb(116,116,116)"/><path d=" M 359 348.208 L 351.5 343.878 L 351.5 366.972 L 359 371.303 L 359 348.208 Z " fill="rgb(116,116,116)"/><path d=" M 439 394.397 L 431.5 390.066 L 431.5 413.16 L 439 417.491 L 439 394.397 Z " fill="rgb(116,116,116)"/><path d=" M 379 359.756 L 371.5 355.425 L 371.5 378.519 L 379 382.849 L 379 359.756 Z " fill="rgb(116,116,116)"/><path d=" M 409 377.076 L 401.5 372.746 L 401.5 395.84 L 409 400.17 L 409 377.076 Z " fill="rgb(116,116,116)"/><path d=" M 349 342.435 L 341.5 338.105 L 341.5 361.199 L 349 365.529 L 349 342.435 Z " fill="rgb(116,116,116)"/><path d=" M 429 388.623 L 421.5 384.293 L 421.5 407.387 L 429 411.717 L 429 388.623 Z " fill="rgb(116,116,116)"/><path d=" M 369 353.982 L 361.5 349.652 L 361.5 372.746 L 369 377.076 L 369 353.982 Z " fill="rgb(116,116,116)"/><path d=" M 399 371.303 L 391.5 366.972 L 391.5 390.066 L 399 394.397 L 399 371.303 Z " fill="rgb(116,116,116)"/><path d=" M 339 336.661 L 331.5 332.331 L 331.5 355.425 L 339 359.755 L 339 336.661 Z " fill="rgb(116,116,116)"/><path d=" M 329 330.888 L 321.5 326.558 L 321.5 349.652 L 329 353.982 L 329 330.888 Z " fill="rgb(116,116,116)"/><path d=" M 559 492.942 L 551.5 488.612 L 551.5 511.706 L 559 516.036 L 559 492.942 Z " fill="rgb(116,116,116)"/><path d=" M 499 458.301 L 491.5 453.971 L 491.5 477.065 L 499 481.395 L 499 458.301 Z " fill="rgb(116,116,116)"/><path d=" M 529 475.621 L 521.5 471.291 L 521.5 494.385 L 529 498.716 L 529 475.621 Z " fill="rgb(116,116,116)"/><path d=" M 469 440.98 L 461.5 436.65 L 461.5 459.744 L 469 464.074 L 469 440.98 Z " fill="rgb(116,116,116)"/><path d=" M 549 487.168 L 541.5 482.838 L 541.5 505.932 L 549 510.262 L 549 487.168 Z " fill="rgb(116,116,116)"/><path d=" M 489 452.527 L 481.5 448.197 L 481.5 471.291 L 489 475.621 L 489 452.527 Z " fill="rgb(116,116,116)"/><path d=" M 519 469.848 L 511.5 465.518 L 511.5 488.612 L 519 492.942 L 519 469.848 Z " fill="rgb(116,116,116)"/><path d=" M 459 435.207 L 451.5 430.877 L 451.5 453.971 L 459 458.301 L 459 435.207 Z " fill="rgb(116,116,116)"/><path d=" M 539 481.395 L 531.5 477.065 L 531.5 500.159 L 539 504.489 L 539 481.395 Z " fill="rgb(116,116,116)"/><path d=" M 479 446.754 L 471.5 442.424 L 471.5 465.518 L 479 469.848 L 479 446.754 Z " fill="rgb(116,116,116)"/><path d=" M 509 464.074 L 501.5 459.744 L 501.5 482.838 L 509 487.168 L 509 464.074 Z " fill="rgb(116,116,116)"/><path d=" M 449 429.433 L 441.5 425.103 L 441.5 448.197 L 449 452.527 L 449 429.433 Z " fill="rgb(116,116,116)"/><path d=" M 389 394.792 L 381.5 390.462 L 381.5 413.556 L 389 417.886 L 389 394.792 Z " fill="rgb(116,116,116)"/><path d=" M 419 412.113 L 411.5 407.783 L 411.5 430.877 L 419 435.207 L 419 412.113 Z " fill="rgb(116,116,116)"/><path d=" M 359 377.472 L 351.5 373.142 L 351.5 396.236 L 359 400.566 L 359 377.472 Z " fill="rgb(116,116,116)"/><path d=" M 439 423.66 L 431.5 419.33 L 431.5 442.424 L 439 446.754 L 439 423.66 Z " fill="rgb(116,116,116)"/><path d=" M 379 389.019 L 371.5 384.689 L 371.5 407.783 L 379 412.113 L 379 389.019 Z " fill="rgb(116,116,116)"/><path d=" M 409 406.339 L 401.5 402.009 L 401.5 425.103 L 409 429.434 L 409 406.339 Z " fill="rgb(116,116,116)"/><path d=" M 349 371.698 L 341.5 367.368 L 341.5 390.462 L 349 394.792 L 349 371.698 Z " fill="rgb(116,116,116)"/><path d=" M 429 417.886 L 421.5 413.556 L 421.5 436.65 L 429 440.981 L 429 417.886 Z " fill="rgb(116,116,116)"/><path d=" M 369 383.245 L 361.5 378.915 L 361.5 402.009 L 369 406.339 L 369 383.245 Z " fill="rgb(116,116,116)"/><path d=" M 399 400.566 L 391.5 396.236 L 391.5 419.33 L 399 423.66 L 399 400.566 Z " fill="rgb(116,116,116)"/><path d=" M 339 365.925 L 331.5 361.595 L 331.5 384.689 L 339 389.019 L 339 365.925 Z " fill="rgb(116,116,116)"/><path d=" M 329 360.151 L 321.5 355.821 L 321.5 378.915 L 329 383.245 L 329 360.151 Z " fill="rgb(116,116,116)"/><path d=" M 559 580.732 L 551.5 576.402 L 551.5 599.496 L 559 603.826 L 559 580.732 Z " fill="rgb(116,116,116)"/><path d=" M 499 546.091 L 491.5 541.761 L 491.5 564.855 L 499 569.185 L 499 546.091 Z " fill="rgb(116,116,116)"/><path d=" M 529 563.412 L 521.5 559.082 L 521.5 582.176 L 529 586.506 L 529 563.412 Z " fill="rgb(116,116,116)"/><path d=" M 469 528.771 L 461.5 524.441 L 461.5 547.535 L 469 551.865 L 469 528.771 Z " fill="rgb(116,116,116)"/><path d=" M 549 574.959 L 541.5 570.629 L 541.5 593.723 L 549 598.053 L 549 574.959 Z " fill="rgb(116,116,116)"/><path d=" M 489 540.318 L 481.5 535.988 L 481.5 559.082 L 489 563.412 L 489 540.318 Z " fill="rgb(116,116,116)"/><path d=" M 519 557.638 L 511.5 553.308 L 511.5 576.402 L 519 580.732 L 519 557.638 Z " fill="rgb(116,116,116)"/><path d=" M 459 522.997 L 451.5 518.667 L 451.5 541.761 L 459 546.091 L 459 522.997 Z " fill="rgb(116,116,116)"/><path d=" M 539 569.185 L 531.5 564.855 L 531.5 587.949 L 539 592.279 L 539 569.185 Z " fill="rgb(116,116,116)"/><path d=" M 479 534.544 L 471.5 530.214 L 471.5 553.308 L 479 557.638 L 479 534.544 Z " fill="rgb(116,116,116)"/><path d=" M 509 551.865 L 501.5 547.535 L 501.5 570.629 L 509 574.959 L 509 551.865 Z " fill="rgb(116,116,116)"/><path d=" M 449 517.224 L 441.5 512.894 L 441.5 535.988 L 449 540.318 L 449 517.224 Z " fill="rgb(116,116,116)"/><path d=" M 389 482.583 L 381.5 478.253 L 381.5 501.347 L 389 505.677 L 389 482.583 Z " fill="rgb(116,116,116)"/><path d=" M 419 499.903 L 411.5 495.573 L 411.5 518.667 L 419 522.997 L 419 499.903 Z " fill="rgb(116,116,116)"/><path d=" M 359 465.262 L 351.5 460.932 L 351.5 484.026 L 359 488.356 L 359 465.262 Z " fill="rgb(116,116,116)"/><path d=" M 439 511.45 L 431.5 507.12 L 431.5 530.214 L 439 534.544 L 439 511.45 Z " fill="rgb(116,116,116)"/><path d=" M 379 476.809 L 371.5 472.479 L 371.5 495.573 L 379 499.903 L 379 476.809 Z " fill="rgb(116,116,116)"/><path d=" M 409 494.13 L 401.5 489.8 L 401.5 512.894 L 409 517.224 L 409 494.13 Z " fill="rgb(116,116,116)"/><path d=" M 349 459.489 L 341.5 455.159 L 341.5 478.253 L 349 482.583 L 349 459.489 Z " fill="rgb(116,116,116)"/><path d=" M 429 505.677 L 421.5 501.347 L 421.5 524.441 L 429 528.771 L 429 505.677 Z " fill="rgb(116,116,116)"/><path d=" M 369 471.036 L 361.5 466.706 L 361.5 489.8 L 369 494.13 L 369 471.036 Z " fill="rgb(116,116,116)"/><path d=" M 399 488.356 L 391.5 484.026 L 391.5 507.12 L 399 511.45 L 399 488.356 Z " fill="rgb(116,116,116)"/><path d=" M 339 453.715 L 331.5 449.385 L 331.5 472.479 L 339 476.809 L 339 453.715 Z " fill="rgb(116,116,116)"/><path d=" M 329 447.942 L 321.5 443.612 L 321.5 466.706 L 329 471.036 L 329 447.942 Z " fill="rgb(116,116,116)"/><path d=" M 559 609.996 L 551.5 605.666 L 551.5 628.76 L 559 633.09 L 559 609.996 Z " fill="rgb(116,116,116)"/><path d=" M 499 575.355 L 491.5 571.025 L 491.5 594.119 L 499 598.449 L 499 575.355 Z " fill="rgb(116,116,116)"/><path d=" M 529 592.675 L 521.5 588.345 L 521.5 611.439 L 529 615.769 L 529 592.675 Z " fill="rgb(116,116,116)"/><path d=" M 469 558.034 L 461.5 553.704 L 461.5 576.798 L 469 581.128 L 469 558.034 Z " fill="rgb(116,116,116)"/><path d=" M 549 604.222 L 541.5 599.892 L 541.5 622.986 L 549 627.316 L 549 604.222 Z " fill="rgb(116,116,116)"/><path d=" M 489 569.581 L 481.5 565.251 L 481.5 588.345 L 489 592.675 L 489 569.581 Z " fill="rgb(116,116,116)"/><path d=" M 519 586.902 L 511.5 582.572 L 511.5 605.666 L 519 609.996 L 519 586.902 Z " fill="rgb(116,116,116)"/><path d=" M 459 552.261 L 451.5 547.931 L 451.5 571.025 L 459 575.355 L 459 552.261 Z " fill="rgb(116,116,116)"/><path d=" M 539 598.449 L 531.5 594.119 L 531.5 617.213 L 539 621.543 L 539 598.449 Z " fill="rgb(116,116,116)"/><path d=" M 479 563.808 L 471.5 559.478 L 471.5 582.572 L 479 586.902 L 479 563.808 Z " fill="rgb(116,116,116)"/><path d=" M 509 581.128 L 501.5 576.798 L 501.5 599.892 L 509 604.222 L 509 581.128 Z " fill="rgb(116,116,116)"/><path d=" M 449 546.487 L 441.5 542.157 L 441.5 565.251 L 449 569.581 L 449 546.487 Z " fill="rgb(116,116,116)"/><path d=" M 389 511.846 L 381.5 507.516 L 381.5 530.61 L 389 534.94 L 389 511.846 Z " fill="rgb(116,116,116)"/><path d=" M 419 529.167 L 411.5 524.837 L 411.5 547.931 L 419 552.261 L 419 529.167 Z " fill="rgb(116,116,116)"/><path d=" M 359 494.526 L 351.5 490.196 L 351.5 513.29 L 359 517.62 L 359 494.526 Z " fill="rgb(116,116,116)"/><path d=" M 439 540.714 L 431.5 536.384 L 431.5 559.478 L 439 563.808 L 439 540.714 Z " fill="rgb(116,116,116)"/><path d=" M 379 506.073 L 371.5 501.743 L 371.5 524.837 L 379 529.167 L 379 506.073 Z " fill="rgb(116,116,116)"/><path d=" M 409 523.393 L 401.5 519.063 L 401.5 542.157 L 409 546.487 L 409 523.393 Z " fill="rgb(116,116,116)"/><path d=" M 349 488.752 L 341.5 484.422 L 341.5 507.516 L 349 511.846 L 349 488.752 Z " fill="rgb(116,116,116)"/><path d=" M 429 534.94 L 421.5 530.61 L 421.5 553.704 L 429 558.034 L 429 534.94 Z " fill="rgb(116,116,116)"/><path d=" M 369 500.299 L 361.5 495.969 L 361.5 519.063 L 369 523.393 L 369 500.299 Z " fill="rgb(116,116,116)"/><path d=" M 399 517.62 L 391.5 513.29 L 391.5 536.384 L 399 540.714 L 399 517.62 Z " fill="rgb(116,116,116)"/><path d=" M 339 482.979 L 331.5 478.649 L 331.5 501.743 L 339 506.073 L 339 482.979 Z " fill="rgb(116,116,116)"/><path d=" M 329 477.205 L 321.5 472.875 L 321.5 495.969 L 329 500.299 L 329 477.205 Z " fill="rgb(116,116,116)"/><path d=" M 559 317.361 L 551.5 313.031 L 551.5 336.125 L 559 340.455 L 559 317.361 Z " fill="rgb(116,116,116)"/><path d=" M 499 282.72 L 491.5 278.39 L 491.5 301.484 L 499 305.814 L 499 282.72 Z " fill="rgb(116,116,116)"/><path d=" M 529 300.041 L 521.5 295.711 L 521.5 318.805 L 529 323.135 L 529 300.041 Z " fill="rgb(116,116,116)"/><path d=" M 469 265.4 L 461.5 261.07 L 461.5 284.164 L 469 288.494 L 469 265.4 Z " fill="rgb(116,116,116)"/><path d=" M 549 311.588 L 541.5 307.258 L 541.5 330.352 L 549 334.682 L 549 311.588 Z " fill="rgb(116,116,116)"/><path d=" M 489 276.947 L 481.5 272.617 L 481.5 295.711 L 489 300.041 L 489 276.947 Z " fill="rgb(116,116,116)"/><path d=" M 519 294.267 L 511.5 289.937 L 511.5 313.031 L 519 317.361 L 519 294.267 Z " fill="rgb(116,116,116)"/><path d=" M 459 259.626 L 451.5 255.296 L 451.5 278.39 L 459 282.72 L 459 259.626 Z " fill="rgb(116,116,116)"/><path d=" M 539 305.814 L 531.5 301.484 L 531.5 324.578 L 539 328.908 L 539 305.814 Z " fill="rgb(116,116,116)"/><path d=" M 479 271.173 L 471.5 266.843 L 471.5 289.937 L 479 294.267 L 479 271.173 Z " fill="rgb(116,116,116)"/><path d=" M 509 288.494 L 501.5 284.164 L 501.5 307.258 L 509 311.588 L 509 288.494 Z " fill="rgb(116,116,116)"/><path d=" M 449 253.853 L 441.5 249.523 L 441.5 272.617 L 449 276.947 L 449 253.853 Z " fill="rgb(116,116,116)"/><path d=" M 389 219.212 L 381.5 214.881 L 381.5 237.976 L 389 242.306 L 389 219.212 Z " fill="rgb(116,116,116)"/><path d=" M 419 236.532 L 411.5 232.202 L 411.5 255.296 L 419 259.626 L 419 236.532 Z " fill="rgb(116,116,116)"/><path d=" M 359 201.891 L 351.5 197.561 L 351.5 220.655 L 359 224.985 L 359 201.891 Z " fill="rgb(116,116,116)"/><path d=" M 439 248.079 L 431.5 243.749 L 431.5 266.843 L 439 271.173 L 439 248.079 Z " fill="rgb(116,116,116)"/><path d=" M 379 213.438 L 371.5 209.108 L 371.5 232.202 L 379 236.532 L 379 213.438 Z " fill="rgb(116,116,116)"/><path d=" M 409 230.759 L 401.5 226.428 L 401.5 249.523 L 409 253.853 L 409 230.759 Z " fill="rgb(116,116,116)"/><path d=" M 349 196.118 L 341.5 191.788 L 341.5 214.881 L 349 219.212 L 349 196.118 Z " fill="rgb(116,116,116)"/><path d=" M 429 242.306 L 421.5 237.976 L 421.5 261.07 L 429 265.4 L 429 242.306 Z " fill="rgb(116,116,116)"/><path d=" M 369 207.665 L 361.5 203.334 L 361.5 226.429 L 369 230.759 L 369 207.665 Z " fill="rgb(116,116,116)"/><path d=" M 399 224.985 L 391.5 220.655 L 391.5 243.749 L 399 248.079 L 399 224.985 Z " fill="rgb(116,116,116)"/><path d=" M 339 190.344 L 331.5 186.014 L 331.5 209.108 L 339 213.438 L 339 190.344 Z " fill="rgb(116,116,116)"/><path d=" M 329 184.571 L 321.5 180.24 L 321.5 203.335 L 329 207.665 L 329 184.571 Z " fill="rgb(116,116,116)"/><path d=" M 559 375.888 L 551.5 371.558 L 551.5 394.652 L 559 398.982 L 559 375.888 Z " fill="rgb(116,116,116)"/><path d=" M 499 341.247 L 491.5 336.917 L 491.5 360.011 L 499 364.341 L 499 341.247 Z " fill="rgb(116,116,116)"/><path d=" M 529 358.568 L 521.5 354.237 L 521.5 377.331 L 529 381.662 L 529 358.568 Z " fill="rgb(116,116,116)"/><path d=" M 469 323.927 L 461.5 319.596 L 461.5 342.69 L 469 347.021 L 469 323.927 Z " fill="rgb(116,116,116)"/><path d=" M 549 370.115 L 541.5 365.784 L 541.5 388.878 L 549 393.209 L 549 370.115 Z " fill="rgb(116,116,116)"/><path d=" M 489 335.474 L 481.5 331.143 L 481.5 354.237 L 489 358.568 L 489 335.474 Z " fill="rgb(116,116,116)"/><path d=" M 519 352.794 L 511.5 348.464 L 511.5 371.558 L 519 375.888 L 519 352.794 Z " fill="rgb(116,116,116)"/><path d=" M 459 318.153 L 451.5 313.823 L 451.5 336.917 L 459 341.247 L 459 318.153 Z " fill="rgb(116,116,116)"/><path d=" M 539 364.341 L 531.5 360.011 L 531.5 383.105 L 539 387.435 L 539 364.341 Z " fill="rgb(116,116,116)"/><path d=" M 479 329.7 L 471.5 325.37 L 471.5 348.464 L 479 352.794 L 479 329.7 Z " fill="rgb(116,116,116)"/><path d=" M 509 347.021 L 501.5 342.69 L 501.5 365.784 L 509 370.115 L 509 347.021 Z " fill="rgb(116,116,116)"/><path d=" M 449 312.38 L 441.5 308.049 L 441.5 331.143 L 449 335.474 L 449 312.38 Z " fill="rgb(116,116,116)"/><path d=" M 389 277.739 L 381.5 273.408 L 381.5 296.502 L 389 300.833 L 389 277.739 Z " fill="rgb(116,116,116)"/><path d=" M 419 295.059 L 411.5 290.729 L 411.5 313.823 L 419 318.153 L 419 295.059 Z " fill="rgb(116,116,116)"/><path d=" M 359 260.418 L 351.5 256.088 L 351.5 279.182 L 359 283.512 L 359 260.418 Z " fill="rgb(116,116,116)"/><path d=" M 439 306.606 L 431.5 302.276 L 431.5 325.37 L 439 329.7 L 439 306.606 Z " fill="rgb(116,116,116)"/><path d=" M 379 271.965 L 371.5 267.635 L 371.5 290.729 L 379 295.059 L 379 271.965 Z " fill="rgb(116,116,116)"/><path d=" M 409 289.286 L 401.5 284.955 L 401.5 308.049 L 409 312.38 L 409 289.286 Z " fill="rgb(116,116,116)"/><path d=" M 349 254.645 L 341.5 250.314 L 341.5 273.408 L 349 277.739 L 349 254.645 Z " fill="rgb(116,116,116)"/><path d=" M 429 300.833 L 421.5 296.502 L 421.5 319.596 L 429 323.927 L 429 300.833 Z " fill="rgb(116,116,116)"/><path d=" M 369 266.192 L 361.5 261.861 L 361.5 284.955 L 369 289.286 L 369 266.192 Z " fill="rgb(116,116,116)"/><path d=" M 399 283.512 L 391.5 279.182 L 391.5 302.276 L 399 306.606 L 399 283.512 Z " fill="rgb(116,116,116)"/><path d=" M 339 248.871 L 331.5 244.541 L 331.5 267.635 L 339 271.965 L 339 248.871 Z " fill="rgb(116,116,116)"/><path d=" M 329 243.098 L 321.5 238.767 L 321.5 261.861 L 329 266.192 L 329 243.098 Z " fill="rgb(116,116,116)"/><path d=" M 559 522.205 L 551.5 517.875 L 551.5 540.969 L 559 545.299 L 559 522.205 Z " fill="rgb(116,116,116)"/><path d=" M 499 487.564 L 491.5 483.234 L 491.5 506.328 L 499 510.658 L 499 487.564 Z " fill="rgb(116,116,116)"/><path d=" M 529 504.885 L 521.5 500.555 L 521.5 523.649 L 529 527.979 L 529 504.885 Z " fill="rgb(116,116,116)"/><path d=" M 469 470.244 L 461.5 465.914 L 461.5 489.008 L 469 493.338 L 469 470.244 Z " fill="rgb(116,116,116)"/><path d=" M 549 516.432 L 541.5 512.102 L 541.5 535.196 L 549 539.526 L 549 516.432 Z " fill="rgb(116,116,116)"/><path d=" M 489 481.791 L 481.5 477.461 L 481.5 500.555 L 489 504.885 L 489 481.791 Z " fill="rgb(116,116,116)"/><path d=" M 519 499.111 L 511.5 494.781 L 511.5 517.875 L 519 522.205 L 519 499.111 Z " fill="rgb(116,116,116)"/><path d=" M 459 464.47 L 451.5 460.14 L 451.5 483.234 L 459 487.564 L 459 464.47 Z " fill="rgb(116,116,116)"/><path d=" M 539 510.658 L 531.5 506.328 L 531.5 529.422 L 539 533.752 L 539 510.658 Z " fill="rgb(116,116,116)"/><path d=" M 479 476.017 L 471.5 471.687 L 471.5 494.781 L 479 499.111 L 479 476.017 Z " fill="rgb(116,116,116)"/><path d=" M 509 493.338 L 501.5 489.008 L 501.5 512.102 L 509 516.432 L 509 493.338 Z " fill="rgb(116,116,116)"/><path d=" M 449 458.697 L 441.5 454.367 L 441.5 477.461 L 449 481.791 L 449 458.697 Z " fill="rgb(116,116,116)"/><path d=" M 389 424.056 L 381.5 419.726 L 381.5 442.82 L 389 447.15 L 389 424.056 Z " fill="rgb(116,116,116)"/><path d=" M 419 441.376 L 411.5 437.046 L 411.5 460.14 L 419 464.47 L 419 441.376 Z " fill="rgb(116,116,116)"/><path d=" M 359 406.735 L 351.5 402.405 L 351.5 425.499 L 359 429.829 L 359 406.735 Z " fill="rgb(116,116,116)"/><path d=" M 439 452.923 L 431.5 448.593 L 431.5 471.687 L 439 476.017 L 439 452.923 Z " fill="rgb(116,116,116)"/><path d=" M 379 418.282 L 371.5 413.952 L 371.5 437.046 L 379 441.376 L 379 418.282 Z " fill="rgb(116,116,116)"/><path d=" M 409 435.603 L 401.5 431.273 L 401.5 454.367 L 409 458.697 L 409 435.603 Z " fill="rgb(116,116,116)"/><path d=" M 349 400.962 L 341.5 396.632 L 341.5 419.726 L 349 424.056 L 349 400.962 Z " fill="rgb(116,116,116)"/><path d=" M 429 447.15 L 421.5 442.82 L 421.5 465.914 L 429 470.244 L 429 447.15 Z " fill="rgb(116,116,116)"/><path d=" M 369 412.509 L 361.5 408.179 L 361.5 431.273 L 369 435.603 L 369 412.509 Z " fill="rgb(116,116,116)"/><path d=" M 399 429.829 L 391.5 425.499 L 391.5 448.593 L 399 452.923 L 399 429.829 Z " fill="rgb(116,116,116)"/><path d=" M 339 395.188 L 331.5 390.858 L 331.5 413.952 L 339 418.282 L 339 395.188 Z " fill="rgb(116,116,116)"/><path d=" M 329 389.415 L 321.5 385.085 L 321.5 408.179 L 329 412.509 L 329 389.415 Z " fill="rgb(116,116,116)"/><path d=" M 559 668.523 L 551.5 664.193 L 551.5 687.287 L 559 691.617 L 559 668.523 Z " fill="rgb(116,116,116)"/><path d=" M 499 633.882 L 491.5 629.552 L 491.5 652.646 L 499 656.976 L 499 633.882 Z " fill="rgb(116,116,116)"/><path d=" M 529 651.202 L 521.5 646.872 L 521.5 669.966 L 529 674.296 L 529 651.202 Z " fill="rgb(116,116,116)"/><path d=" M 469 616.561 L 461.5 612.231 L 461.5 635.325 L 469 639.655 L 469 616.561 Z " fill="rgb(116,116,116)"/><path d=" M 549 662.749 L 541.5 658.419 L 541.5 681.513 L 549 685.843 L 549 662.749 Z " fill="rgb(116,116,116)"/><path d=" M 489 628.108 L 481.5 623.778 L 481.5 646.872 L 489 651.202 L 489 628.108 Z " fill="rgb(116,116,116)"/><path d=" M 519 645.429 L 511.5 641.099 L 511.5 664.193 L 519 668.523 L 519 645.429 Z " fill="rgb(116,116,116)"/><path d=" M 459 610.788 L 451.5 606.458 L 451.5 629.552 L 459 633.882 L 459 610.788 Z " fill="rgb(116,116,116)"/><path d=" M 539 656.976 L 531.5 652.646 L 531.5 675.74 L 539 680.07 L 539 656.976 Z " fill="rgb(116,116,116)"/><path d=" M 479 622.335 L 471.5 618.005 L 471.5 641.099 L 479 645.429 L 479 622.335 Z " fill="rgb(116,116,116)"/><path d=" M 509 639.655 L 501.5 635.325 L 501.5 658.419 L 509 662.749 L 509 639.655 Z " fill="rgb(116,116,116)"/><path d=" M 449 605.014 L 441.5 600.684 L 441.5 623.778 L 449 628.108 L 449 605.014 Z " fill="rgb(116,116,116)"/><path d=" M 389 570.373 L 381.5 566.043 L 381.5 589.137 L 389 593.467 L 389 570.373 Z " fill="rgb(116,116,116)"/><path d=" M 419 587.694 L 411.5 583.364 L 411.5 606.458 L 419 610.788 L 419 587.694 Z " fill="rgb(116,116,116)"/><path d=" M 359 553.053 L 351.5 548.723 L 351.5 571.817 L 359 576.147 L 359 553.053 Z " fill="rgb(116,116,116)"/><path d=" M 439 599.241 L 431.5 594.911 L 431.5 618.005 L 439 622.335 L 439 599.241 Z " fill="rgb(116,116,116)"/><path d=" M 379 564.6 L 371.5 560.27 L 371.5 583.364 L 379 587.694 L 379 564.6 Z " fill="rgb(116,116,116)"/><path d=" M 409 581.92 L 401.5 577.59 L 401.5 600.684 L 409 605.014 L 409 581.92 Z " fill="rgb(116,116,116)"/><path d=" M 349 547.279 L 341.5 542.949 L 341.5 566.043 L 349 570.373 L 349 547.279 Z " fill="rgb(116,116,116)"/><path d=" M 429 593.467 L 421.5 589.137 L 421.5 612.231 L 429 616.561 L 429 593.467 Z " fill="rgb(116,116,116)"/><path d=" M 369 558.826 L 361.5 554.496 L 361.5 577.59 L 369 581.92 L 369 558.826 Z " fill="rgb(116,116,116)"/><path d=" M 399 576.147 L 391.5 571.817 L 391.5 594.911 L 399 599.241 L 399 576.147 Z " fill="rgb(116,116,116)"/><path d=" M 339 541.506 L 331.5 537.176 L 331.5 560.27 L 339 564.6 L 339 541.506 Z " fill="rgb(116,116,116)"/><path d=" M 329 535.732 L 321.5 531.402 L 321.5 554.496 L 329 558.826 L 329 535.732 Z " fill="rgb(116,116,116)"/><path d=" M 559 697.786 L 551.5 693.456 L 551.5 716.55 L 559 720.88 L 559 697.786 Z " fill="rgb(116,116,116)"/><path d=" M 499 663.145 L 491.5 658.815 L 491.5 681.909 L 499 686.239 L 499 663.145 Z " fill="rgb(116,116,116)"/><path d=" M 529 680.466 L 521.5 676.136 L 521.5 699.23 L 529 703.56 L 529 680.466 Z " fill="rgb(116,116,116)"/><path d=" M 469 645.825 L 461.5 641.495 L 461.5 664.589 L 469 668.919 L 469 645.825 Z " fill="rgb(116,116,116)"/><path d=" M 549 692.013 L 541.5 687.683 L 541.5 710.777 L 549 715.107 L 549 692.013 Z " fill="rgb(116,116,116)"/><path d=" M 489 657.372 L 481.5 653.042 L 481.5 676.136 L 489 680.466 L 489 657.372 Z " fill="rgb(116,116,116)"/><path d=" M 519 674.692 L 511.5 670.362 L 511.5 693.456 L 519 697.786 L 519 674.692 Z " fill="rgb(116,116,116)"/><path d=" M 459 640.051 L 451.5 635.721 L 451.5 658.815 L 459 663.145 L 459 640.051 Z " fill="rgb(116,116,116)"/><path d=" M 539 686.239 L 531.5 681.909 L 531.5 705.003 L 539 709.333 L 539 686.239 Z " fill="rgb(116,116,116)"/><path d=" M 479 651.598 L 471.5 647.268 L 471.5 670.362 L 479 674.692 L 479 651.598 Z " fill="rgb(116,116,116)"/><path d=" M 509 668.919 L 501.5 664.589 L 501.5 687.683 L 509 692.013 L 509 668.919 Z " fill="rgb(116,116,116)"/><path d=" M 449 634.278 L 441.5 629.948 L 441.5 653.042 L 449 657.372 L 449 634.278 Z " fill="rgb(116,116,116)"/><path d=" M 389 599.637 L 381.5 595.307 L 381.5 618.401 L 389 622.731 L 389 599.637 Z " fill="rgb(116,116,116)"/><path d=" M 419 616.957 L 411.5 612.627 L 411.5 635.721 L 419 640.051 L 419 616.957 Z " fill="rgb(116,116,116)"/><path d=" M 359 582.316 L 351.5 577.986 L 351.5 601.08 L 359 605.41 L 359 582.316 Z " fill="rgb(116,116,116)"/><path d=" M 439 628.504 L 431.5 624.174 L 431.5 647.268 L 439 651.598 L 439 628.504 Z " fill="rgb(116,116,116)"/><path d=" M 379 593.863 L 371.5 589.533 L 371.5 612.627 L 379 616.957 L 379 593.863 Z " fill="rgb(116,116,116)"/><path d=" M 409 611.184 L 401.5 606.854 L 401.5 629.948 L 409 634.278 L 409 611.184 Z " fill="rgb(116,116,116)"/><path d=" M 349 576.543 L 341.5 572.213 L 341.5 595.307 L 349 599.637 L 349 576.543 Z " fill="rgb(116,116,116)"/><path d=" M 429 622.731 L 421.5 618.401 L 421.5 641.495 L 429 645.825 L 429 622.731 Z " fill="rgb(116,116,116)"/><path d=" M 369 588.09 L 361.5 583.76 L 361.5 606.854 L 369 611.184 L 369 588.09 Z " fill="rgb(116,116,116)"/><path d=" M 399 605.41 L 391.5 601.08 L 391.5 624.174 L 399 628.504 L 399 605.41 Z " fill="rgb(116,116,116)"/><path d=" M 339 570.769 L 331.5 566.439 L 331.5 589.533 L 339 593.863 L 339 570.769 Z " fill="rgb(116,116,116)"/><path d=" M 329 564.996 L 321.5 560.666 L 321.5 583.76 L 329 588.09 L 329 564.996 Z " fill="rgb(116,116,116)"/><path d=" M 559 727.05 L 551.5 722.72 L 551.5 745.814 L 559 750.144 L 559 727.05 Z " fill="rgb(116,116,116)"/><path d=" M 499 692.409 L 491.5 688.079 L 491.5 711.173 L 499 715.503 L 499 692.409 Z " fill="rgb(116,116,116)"/><path d=" M 529 709.729 L 521.5 705.399 L 521.5 728.493 L 529 732.823 L 529 709.729 Z " fill="rgb(116,116,116)"/><path d=" M 469 675.088 L 461.5 670.758 L 461.5 693.852 L 469 698.182 L 469 675.088 Z " fill="rgb(116,116,116)"/><path d=" M 549 721.276 L 541.5 716.946 L 541.5 740.04 L 549 744.37 L 549 721.276 Z " fill="rgb(116,116,116)"/><path d=" M 489 686.635 L 481.5 682.305 L 481.5 705.399 L 489 709.729 L 489 686.635 Z " fill="rgb(116,116,116)"/><path d=" M 519 703.956 L 511.5 699.626 L 511.5 722.72 L 519 727.05 L 519 703.956 Z " fill="rgb(116,116,116)"/><path d=" M 459 669.315 L 451.5 664.985 L 451.5 688.079 L 459 692.409 L 459 669.315 Z " fill="rgb(116,116,116)"/><path d=" M 539 715.503 L 531.5 711.173 L 531.5 734.267 L 539 738.597 L 539 715.503 Z " fill="rgb(116,116,116)"/><path d=" M 479 680.862 L 471.5 676.532 L 471.5 699.626 L 479 703.956 L 479 680.862 Z " fill="rgb(116,116,116)"/><path d=" M 509 698.182 L 501.5 693.852 L 501.5 716.946 L 509 721.276 L 509 698.182 Z " fill="rgb(116,116,116)"/><path d=" M 449 663.541 L 441.5 659.211 L 441.5 682.305 L 449 686.635 L 449 663.541 Z " fill="rgb(116,116,116)"/><path d=" M 389 628.9 L 381.5 624.57 L 381.5 647.664 L 389 651.994 L 389 628.9 Z " fill="rgb(116,116,116)"/><path d=" M 419 646.221 L 411.5 641.891 L 411.5 664.985 L 419 669.315 L 419 646.221 Z " fill="rgb(116,116,116)"/><path d=" M 359 611.58 L 351.5 607.25 L 351.5 630.344 L 359 634.674 L 359 611.58 Z " fill="rgb(116,116,116)"/><path d=" M 439 657.768 L 431.5 653.438 L 431.5 676.532 L 439 680.862 L 439 657.768 Z " fill="rgb(116,116,116)"/><path d=" M 379 623.127 L 371.5 618.797 L 371.5 641.891 L 379 646.221 L 379 623.127 Z " fill="rgb(116,116,116)"/><path d=" M 409 640.447 L 401.5 636.117 L 401.5 659.211 L 409 663.541 L 409 640.447 Z " fill="rgb(116,116,116)"/><path d=" M 349 605.806 L 341.5 601.476 L 341.5 624.57 L 349 628.9 L 349 605.806 Z " fill="rgb(116,116,116)"/><path d=" M 429 651.994 L 421.5 647.664 L 421.5 670.758 L 429 675.088 L 429 651.994 Z " fill="rgb(116,116,116)"/><path d=" M 369 617.353 L 361.5 613.023 L 361.5 636.117 L 369 640.447 L 369 617.353 Z " fill="rgb(116,116,116)"/><path d=" M 399 634.674 L 391.5 630.344 L 391.5 653.438 L 399 657.768 L 399 634.674 Z " fill="rgb(116,116,116)"/><path d=" M 339 600.033 L 331.5 595.703 L 331.5 618.797 L 339 623.127 L 339 600.033 Z " fill="rgb(116,116,116)"/><path d=" M 329 594.259 L 321.5 589.929 L 321.5 613.023 L 329 617.353 L 329 594.259 Z " fill="rgb(116,116,116)"/><path d=" M 559 756.313 L 551.5 751.983 L 551.5 775.077 L 559 779.407 L 559 756.313 Z " fill="rgb(116,116,116)"/><path d=" M 499 721.672 L 491.5 717.342 L 491.5 740.436 L 499 744.766 L 499 721.672 Z " fill="rgb(116,116,116)"/><path d=" M 529 738.993 L 521.5 734.663 L 521.5 757.757 L 529 762.087 L 529 738.993 Z " fill="rgb(116,116,116)"/><path d=" M 469 704.352 L 461.5 700.022 L 461.5 723.116 L 469 727.446 L 469 704.352 Z " fill="rgb(116,116,116)"/><path d=" M 549 750.54 L 541.5 746.21 L 541.5 769.304 L 549 773.634 L 549 750.54 Z " fill="rgb(116,116,116)"/><path d=" M 489 715.899 L 481.5 711.569 L 481.5 734.663 L 489 738.993 L 489 715.899 Z " fill="rgb(116,116,116)"/><path d=" M 519 733.219 L 511.5 728.889 L 511.5 751.983 L 519 756.313 L 519 733.219 Z " fill="rgb(116,116,116)"/><path d=" M 459 698.578 L 451.5 694.248 L 451.5 717.342 L 459 721.672 L 459 698.578 Z " fill="rgb(116,116,116)"/><path d=" M 539 744.766 L 531.5 740.436 L 531.5 763.53 L 539 767.86 L 539 744.766 Z " fill="rgb(116,116,116)"/><path d=" M 479 710.125 L 471.5 705.795 L 471.5 728.889 L 479 733.219 L 479 710.125 Z " fill="rgb(116,116,116)"/><path d=" M 509 727.446 L 501.5 723.116 L 501.5 746.21 L 509 750.54 L 509 727.446 Z " fill="rgb(116,116,116)"/><path d=" M 449 692.805 L 441.5 688.475 L 441.5 711.569 L 449 715.899 L 449 692.805 Z " fill="rgb(116,116,116)"/><path d=" M 389 658.164 L 381.5 653.834 L 381.5 676.928 L 389 681.258 L 389 658.164 Z " fill="rgb(116,116,116)"/><path d=" M 419 675.484 L 411.5 671.154 L 411.5 694.248 L 419 698.578 L 419 675.484 Z " fill="rgb(116,116,116)"/><path d=" M 359 640.843 L 351.5 636.513 L 351.5 659.607 L 359 663.937 L 359 640.843 Z " fill="rgb(116,116,116)"/><path d=" M 439 687.031 L 431.5 682.701 L 431.5 705.795 L 439 710.125 L 439 687.031 Z " fill="rgb(116,116,116)"/><path d=" M 379 652.39 L 371.5 648.06 L 371.5 671.154 L 379 675.484 L 379 652.39 Z " fill="rgb(116,116,116)"/><path d=" M 409 669.711 L 401.5 665.381 L 401.5 688.475 L 409 692.805 L 409 669.711 Z " fill="rgb(116,116,116)"/><path d=" M 349 635.07 L 341.5 630.74 L 341.5 653.834 L 349 658.164 L 349 635.07 Z " fill="rgb(116,116,116)"/><path d=" M 429 681.258 L 421.5 676.928 L 421.5 700.022 L 429 704.352 L 429 681.258 Z " fill="rgb(116,116,116)"/><path d=" M 369 646.617 L 361.5 642.287 L 361.5 665.381 L 369 669.711 L 369 646.617 Z " fill="rgb(116,116,116)"/><path d=" M 399 663.937 L 391.5 659.607 L 391.5 682.701 L 399 687.031 L 399 663.937 Z " fill="rgb(116,116,116)"/><path d=" M 339 629.296 L 331.5 624.966 L 331.5 648.06 L 339 652.39 L 339 629.296 Z " fill="rgb(116,116,116)"/><path d=" M 329 623.523 L 321.5 619.193 L 321.5 642.287 L 329 646.617 L 329 623.523 Z " fill="rgb(116,116,116)"/><path d=" M 559 785.577 L 551.5 781.247 L 551.5 804.341 L 559 808.671 L 559 785.577 Z " fill="rgb(116,116,116)"/><path d=" M 499 750.936 L 491.5 746.606 L 491.5 769.7 L 499 774.03 L 499 750.936 Z " fill="rgb(116,116,116)"/><path d=" M 529 768.256 L 521.5 763.926 L 521.5 787.02 L 529 791.35 L 529 768.256 Z " fill="rgb(116,116,116)"/><path d=" M 469 733.615 L 461.5 729.285 L 461.5 752.379 L 469 756.709 L 469 733.615 Z " fill="rgb(116,116,116)"/><path d=" M 549 779.803 L 541.5 775.473 L 541.5 798.567 L 549 802.897 L 549 779.803 Z " fill="rgb(116,116,116)"/><path d=" M 489 745.162 L 481.5 740.832 L 481.5 763.926 L 489 768.256 L 489 745.162 Z " fill="rgb(116,116,116)"/><path d=" M 519 762.483 L 511.5 758.153 L 511.5 781.247 L 519 785.577 L 519 762.483 Z " fill="rgb(116,116,116)"/><path d=" M 459 727.842 L 451.5 723.512 L 451.5 746.606 L 459 750.936 L 459 727.842 Z " fill="rgb(116,116,116)"/><path d=" M 539 774.03 L 531.5 769.7 L 531.5 792.794 L 539 797.124 L 539 774.03 Z " fill="rgb(116,116,116)"/><path d=" M 479 739.389 L 471.5 735.059 L 471.5 758.153 L 479 762.483 L 479 739.389 Z " fill="rgb(116,116,116)"/><path d=" M 509 756.709 L 501.5 752.379 L 501.5 775.473 L 509 779.803 L 509 756.709 Z " fill="rgb(116,116,116)"/><path d=" M 449 722.068 L 441.5 717.738 L 441.5 740.832 L 449 745.162 L 449 722.068 Z " fill="rgb(116,116,116)"/><path d=" M 389 687.427 L 381.5 683.097 L 381.5 706.191 L 389 710.521 L 389 687.427 Z " fill="rgb(116,116,116)"/><path d=" M 419 704.748 L 411.5 700.418 L 411.5 723.512 L 419 727.842 L 419 704.748 Z " fill="rgb(116,116,116)"/><path d=" M 359 670.107 L 351.5 665.777 L 351.5 688.871 L 359 693.201 L 359 670.107 Z " fill="rgb(116,116,116)"/><path d=" M 439 716.295 L 431.5 711.965 L 431.5 735.059 L 439 739.389 L 439 716.295 Z " fill="rgb(116,116,116)"/><path d=" M 379 681.654 L 371.5 677.324 L 371.5 700.418 L 379 704.748 L 379 681.654 Z " fill="rgb(116,116,116)"/><path d=" M 409 698.974 L 401.5 694.644 L 401.5 717.738 L 409 722.068 L 409 698.974 Z " fill="rgb(116,116,116)"/><path d=" M 349 664.333 L 341.5 660.003 L 341.5 683.097 L 349 687.427 L 349 664.333 Z " fill="rgb(116,116,116)"/><path d=" M 429 710.521 L 421.5 706.191 L 421.5 729.285 L 429 733.615 L 429 710.521 Z " fill="rgb(116,116,116)"/><path d=" M 369 675.88 L 361.5 671.55 L 361.5 694.644 L 369 698.974 L 369 675.88 Z " fill="rgb(116,116,116)"/><path d=" M 399 693.201 L 391.5 688.871 L 391.5 711.965 L 399 716.295 L 399 693.201 Z " fill="rgb(116,116,116)"/><path d=" M 339 658.56 L 331.5 654.23 L 331.5 677.324 L 339 681.654 L 339 658.56 Z " fill="rgb(116,116,116)"/><path d=" M 329 652.786 L 321.5 648.456 L 321.5 671.55 L 329 675.88 L 329 652.786 Z " fill="rgb(116,116,116)"/><path d=" M 559 814.84 L 551.5 810.51 L 551.5 833.604 L 559 837.934 L 559 814.84 Z " fill="rgb(116,116,116)"/><path d=" M 499 780.199 L 491.5 775.869 L 491.5 798.963 L 499 803.293 L 499 780.199 Z " fill="rgb(116,116,116)"/><path d=" M 529 797.52 L 521.5 793.19 L 521.5 816.284 L 529 820.614 L 529 797.52 Z " fill="rgb(116,116,116)"/><path d=" M 469 762.879 L 461.5 758.549 L 461.5 781.643 L 469 785.973 L 469 762.879 Z " fill="rgb(116,116,116)"/><path d=" M 549 809.067 L 541.5 804.737 L 541.5 827.831 L 549 832.161 L 549 809.067 Z " fill="rgb(116,116,116)"/><path d=" M 489 774.426 L 481.5 770.096 L 481.5 793.19 L 489 797.52 L 489 774.426 Z " fill="rgb(116,116,116)"/><path d=" M 519 791.746 L 511.5 787.416 L 511.5 810.51 L 519 814.84 L 519 791.746 Z " fill="rgb(116,116,116)"/><path d=" M 459 757.105 L 451.5 752.775 L 451.5 775.869 L 459 780.199 L 459 757.105 Z " fill="rgb(116,116,116)"/><path d=" M 539 803.293 L 531.5 798.963 L 531.5 822.057 L 539 826.387 L 539 803.293 Z " fill="rgb(116,116,116)"/><path d=" M 479 768.652 L 471.5 764.322 L 471.5 787.416 L 479 791.746 L 479 768.652 Z " fill="rgb(116,116,116)"/><path d=" M 509 785.973 L 501.5 781.643 L 501.5 804.737 L 509 809.067 L 509 785.973 Z " fill="rgb(116,116,116)"/><path d=" M 449 751.332 L 441.5 747.002 L 441.5 770.096 L 449 774.426 L 449 751.332 Z " fill="rgb(116,116,116)"/><path d=" M 389 716.691 L 381.5 712.361 L 381.5 735.455 L 389 739.785 L 389 716.691 Z " fill="rgb(116,116,116)"/><path d=" M 419 734.011 L 411.5 729.681 L 411.5 752.775 L 419 757.105 L 419 734.011 Z " fill="rgb(116,116,116)"/><path d=" M 359 699.37 L 351.5 695.04 L 351.5 718.134 L 359 722.464 L 359 699.37 Z " fill="rgb(116,116,116)"/><path d=" M 439 745.558 L 431.5 741.228 L 431.5 764.322 L 439 768.652 L 439 745.558 Z " fill="rgb(116,116,116)"/><path d=" M 379 710.917 L 371.5 706.587 L 371.5 729.681 L 379 734.011 L 379 710.917 Z " fill="rgb(116,116,116)"/><path d=" M 409 728.238 L 401.5 723.908 L 401.5 747.002 L 409 751.332 L 409 728.238 Z " fill="rgb(116,116,116)"/><path d=" M 349 693.597 L 341.5 689.267 L 341.5 712.361 L 349 716.691 L 349 693.597 Z " fill="rgb(116,116,116)"/><path d=" M 429 739.785 L 421.5 735.455 L 421.5 758.549 L 429 762.879 L 429 739.785 Z " fill="rgb(116,116,116)"/><path d=" M 369 705.144 L 361.5 700.814 L 361.5 723.908 L 369 728.238 L 369 705.144 Z " fill="rgb(116,116,116)"/><path d=" M 399 722.464 L 391.5 718.134 L 391.5 741.228 L 399 745.558 L 399 722.464 Z " fill="rgb(116,116,116)"/><path d=" M 339 687.823 L 331.5 683.493 L 331.5 706.587 L 339 710.917 L 339 687.823 Z " fill="rgb(116,116,116)"/><path d=" M 329 682.05 L 321.5 677.72 L 321.5 700.814 L 329 705.144 L 329 682.05 Z " fill="rgb(116,116,116)"/></g><g id="windows-right"><path d=" M 571 346.625 L 578.5 342.294 L 578.5 365.389 L 571 369.719 L 571 346.625 Z " fill="rgb(116,116,116)"/><path d=" M 631 311.984 L 638.5 307.653 L 638.5 330.747 L 631 335.078 L 631 311.984 Z " fill="rgb(116,116,116)"/><path d=" M 601 329.304 L 608.5 324.974 L 608.5 348.068 L 601 352.398 L 601 329.304 Z " fill="rgb(116,116,116)"/><path d=" M 661 294.663 L 668.5 290.333 L 668.5 313.427 L 661 317.757 L 661 294.663 Z " fill="rgb(116,116,116)"/><path d=" M 581 340.851 L 588.5 336.521 L 588.5 359.615 L 581 363.945 L 581 340.851 Z " fill="rgb(116,116,116)"/><path d=" M 641 306.21 L 648.5 301.88 L 648.5 324.974 L 641 329.304 L 641 306.21 Z " fill="rgb(116,116,116)"/><path d=" M 611 323.531 L 618.5 319.2 L 618.5 342.294 L 611 346.625 L 611 323.531 Z " fill="rgb(116,116,116)"/><path d=" M 591 335.078 L 598.5 330.748 L 598.5 353.842 L 591 358.172 L 591 335.078 Z " fill="rgb(116,116,116)"/><path d=" M 651 300.437 L 658.5 296.106 L 658.5 319.2 L 651 323.531 L 651 300.437 Z " fill="rgb(116,116,116)"/><path d=" M 621 317.757 L 628.5 313.427 L 628.5 336.521 L 621 340.851 L 621 317.757 Z " fill="rgb(116,116,116)"/><path d=" M 571 375.888 L 578.5 371.558 L 578.5 394.652 L 571 398.982 L 571 375.888 Z " fill="rgb(116,116,116)"/><path d=" M 631 341.247 L 638.5 336.917 L 638.5 360.011 L 631 364.341 L 631 341.247 Z " fill="rgb(116,116,116)"/><path d=" M 601 358.568 L 608.5 354.237 L 608.5 377.331 L 601 381.662 L 601 358.568 Z " fill="rgb(116,116,116)"/><path d=" M 661 323.927 L 668.5 319.596 L 668.5 342.69 L 661 347.021 L 661 323.927 Z " fill="rgb(116,116,116)"/><path d=" M 581 370.115 L 588.5 365.784 L 588.5 388.878 L 581 393.209 L 581 370.115 Z " fill="rgb(116,116,116)"/><path d=" M 641 335.474 L 648.5 331.143 L 648.5 354.237 L 641 358.568 L 641 335.474 Z " fill="rgb(116,116,116)"/><path d=" M 611 352.794 L 618.5 348.464 L 618.5 371.558 L 611 375.888 L 611 352.794 Z " fill="rgb(116,116,116)"/><path d=" M 591 364.341 L 598.5 360.011 L 598.5 383.105 L 591 387.435 L 591 364.341 Z " fill="rgb(116,116,116)"/><path d=" M 651 329.7 L 658.5 325.37 L 658.5 348.464 L 651 352.794 L 651 329.7 Z " fill="rgb(116,116,116)"/><path d=" M 621 347.021 L 628.5 342.69 L 628.5 365.784 L 621 370.115 L 621 347.021 Z " fill="rgb(116,116,116)"/><path d=" M 571 580.732 L 578.5 576.402 L 578.5 599.496 L 571 603.826 L 571 580.732 Z " fill="rgb(116,116,116)"/><path d=" M 631 546.091 L 638.5 541.761 L 638.5 564.855 L 631 569.185 L 631 546.091 Z " fill="rgb(116,116,116)"/><path d=" M 601 563.412 L 608.5 559.082 L 608.5 582.176 L 601 586.506 L 601 563.412 Z " fill="rgb(116,116,116)"/><path d=" M 661 528.771 L 668.5 524.441 L 668.5 547.535 L 661 551.865 L 661 528.771 Z " fill="rgb(116,116,116)"/><path d=" M 581 574.959 L 588.5 570.629 L 588.5 593.723 L 581 598.053 L 581 574.959 Z " fill="rgb(116,116,116)"/><path d=" M 641 540.318 L 648.5 535.988 L 648.5 559.082 L 641 563.412 L 641 540.318 Z " fill="rgb(116,116,116)"/><path d=" M 611 557.638 L 618.5 553.308 L 618.5 576.402 L 611 580.732 L 611 557.638 Z " fill="rgb(116,116,116)"/><path d=" M 591 569.185 L 598.5 564.855 L 598.5 587.949 L 591 592.279 L 591 569.185 Z " fill="rgb(116,116,116)"/><path d=" M 651 534.544 L 658.5 530.214 L 658.5 553.308 L 651 557.638 L 651 534.544 Z " fill="rgb(116,116,116)"/><path d=" M 621 551.865 L 628.5 547.535 L 628.5 570.629 L 621 574.959 L 621 551.865 Z " fill="rgb(116,116,116)"/><path d=" M 571 434.415 L 578.5 430.085 L 578.5 453.179 L 571 457.509 L 571 434.415 Z " fill="rgb(116,116,116)"/><path d=" M 631 399.774 L 638.5 395.444 L 638.5 418.538 L 631 422.868 L 631 399.774 Z " fill="rgb(116,116,116)"/><path d=" M 601 417.095 L 608.5 412.764 L 608.5 435.858 L 601 440.189 L 601 417.095 Z " fill="rgb(116,116,116)"/><path d=" M 661 382.454 L 668.5 378.123 L 668.5 401.217 L 661 405.548 L 661 382.454 Z " fill="rgb(116,116,116)"/><path d=" M 581 428.642 L 588.5 424.311 L 588.5 447.405 L 581 451.736 L 581 428.642 Z " fill="rgb(116,116,116)"/><path d=" M 641 394.001 L 648.5 389.67 L 648.5 412.764 L 641 417.095 L 641 394.001 Z " fill="rgb(116,116,116)"/><path d=" M 611 411.321 L 618.5 406.991 L 618.5 430.085 L 611 434.415 L 611 411.321 Z " fill="rgb(116,116,116)"/><path d=" M 591 422.868 L 598.5 418.538 L 598.5 441.632 L 591 445.962 L 591 422.868 Z " fill="rgb(116,116,116)"/><path d=" M 651 388.227 L 658.5 383.897 L 658.5 406.991 L 651 411.321 L 651 388.227 Z " fill="rgb(116,116,116)"/><path d=" M 621 405.548 L 628.5 401.217 L 628.5 424.311 L 621 428.642 L 621 405.548 Z " fill="rgb(116,116,116)"/><path d=" M 571 609.996 L 578.5 605.666 L 578.5 628.76 L 571 633.09 L 571 609.996 Z " fill="rgb(116,116,116)"/><path d=" M 631 575.355 L 638.5 571.025 L 638.5 594.119 L 631 598.449 L 631 575.355 Z " fill="rgb(116,116,116)"/><path d=" M 601 592.675 L 608.5 588.345 L 608.5 611.439 L 601 615.769 L 601 592.675 Z " fill="rgb(116,116,116)"/><path d=" M 661 558.034 L 668.5 553.704 L 668.5 576.798 L 661 581.128 L 661 558.034 Z " fill="rgb(116,116,116)"/><path d=" M 581 604.222 L 588.5 599.892 L 588.5 622.986 L 581 627.316 L 581 604.222 Z " fill="rgb(116,116,116)"/><path d=" M 641 569.581 L 648.5 565.251 L 648.5 588.345 L 641 592.675 L 641 569.581 Z " fill="rgb(116,116,116)"/><path d=" M 611 586.902 L 618.5 582.572 L 618.5 605.666 L 611 609.996 L 611 586.902 Z " fill="rgb(116,116,116)"/><path d=" M 591 598.449 L 598.5 594.119 L 598.5 617.213 L 591 621.543 L 591 598.449 Z " fill="rgb(116,116,116)"/><path d=" M 651 563.808 L 658.5 559.478 L 658.5 582.572 L 651 586.902 L 651 563.808 Z " fill="rgb(116,116,116)"/><path d=" M 621 581.128 L 628.5 576.798 L 628.5 599.892 L 621 604.222 L 621 581.128 Z " fill="rgb(116,116,116)"/><path d=" M 571 463.679 L 578.5 459.348 L 578.5 482.442 L 571 486.773 L 571 463.679 Z " fill="rgb(116,116,116)"/><path d=" M 631 429.038 L 638.5 424.707 L 638.5 447.801 L 631 452.132 L 631 429.038 Z " fill="rgb(116,116,116)"/><path d=" M 601 446.358 L 608.5 442.028 L 608.5 465.122 L 601 469.452 L 601 446.358 Z " fill="rgb(116,116,116)"/><path d=" M 661 411.717 L 668.5 407.387 L 668.5 430.481 L 661 434.811 L 661 411.717 Z " fill="rgb(116,116,116)"/><path d=" M 581 457.905 L 588.5 453.575 L 588.5 476.669 L 581 480.999 L 581 457.905 Z " fill="rgb(116,116,116)"/><path d=" M 641 423.264 L 648.5 418.934 L 648.5 442.028 L 641 446.358 L 641 423.264 Z " fill="rgb(116,116,116)"/><path d=" M 611 440.585 L 618.5 436.254 L 618.5 459.348 L 611 463.679 L 611 440.585 Z " fill="rgb(116,116,116)"/><path d=" M 591 452.132 L 598.5 447.801 L 598.5 470.895 L 591 475.226 L 591 452.132 Z " fill="rgb(116,116,116)"/><path d=" M 651 417.491 L 658.5 413.16 L 658.5 436.254 L 651 440.585 L 651 417.491 Z " fill="rgb(116,116,116)"/><path d=" M 621 434.811 L 628.5 430.481 L 628.5 453.575 L 621 457.905 L 621 434.811 Z " fill="rgb(116,116,116)"/><path d=" M 571 492.942 L 578.5 488.612 L 578.5 511.706 L 571 516.036 L 571 492.942 Z " fill="rgb(116,116,116)"/><path d=" M 631 458.301 L 638.5 453.971 L 638.5 477.065 L 631 481.395 L 631 458.301 Z " fill="rgb(116,116,116)"/><path d=" M 601 475.621 L 608.5 471.291 L 608.5 494.385 L 601 498.716 L 601 475.621 Z " fill="rgb(116,116,116)"/><path d=" M 661 440.98 L 668.5 436.65 L 668.5 459.744 L 661 464.074 L 661 440.98 Z " fill="rgb(116,116,116)"/><path d=" M 581 487.168 L 588.5 482.838 L 588.5 505.932 L 581 510.262 L 581 487.168 Z " fill="rgb(116,116,116)"/><path d=" M 641 452.527 L 648.5 448.197 L 648.5 471.291 L 641 475.621 L 641 452.527 Z " fill="rgb(116,116,116)"/><path d=" M 611 469.848 L 618.5 465.518 L 618.5 488.612 L 611 492.942 L 611 469.848 Z " fill="rgb(116,116,116)"/><path d=" M 591 481.395 L 598.5 477.065 L 598.5 500.159 L 591 504.489 L 591 481.395 Z " fill="rgb(116,116,116)"/><path d=" M 651 446.754 L 658.5 442.424 L 658.5 465.518 L 651 469.848 L 651 446.754 Z " fill="rgb(116,116,116)"/><path d=" M 621 464.074 L 628.5 459.744 L 628.5 482.838 L 621 487.168 L 621 464.074 Z " fill="rgb(116,116,116)"/><path d=" M 571 522.205 L 578.5 517.875 L 578.5 540.969 L 571 545.299 L 571 522.205 Z " fill="rgb(116,116,116)"/><path d=" M 631 487.564 L 638.5 483.234 L 638.5 506.328 L 631 510.658 L 631 487.564 Z " fill="rgb(116,116,116)"/><path d=" M 601 504.885 L 608.5 500.555 L 608.5 523.649 L 601 527.979 L 601 504.885 Z " fill="rgb(116,116,116)"/><path d=" M 661 470.244 L 668.5 465.914 L 668.5 489.008 L 661 493.338 L 661 470.244 Z " fill="rgb(116,116,116)"/><path d=" M 581 516.432 L 588.5 512.102 L 588.5 535.196 L 581 539.526 L 581 516.432 Z " fill="rgb(116,116,116)"/><path d=" M 641 481.791 L 648.5 477.461 L 648.5 500.555 L 641 504.885 L 641 481.791 Z " fill="rgb(116,116,116)"/><path d=" M 611 499.111 L 618.5 494.781 L 618.5 517.875 L 611 522.205 L 611 499.111 Z " fill="rgb(116,116,116)"/><path d=" M 591 510.658 L 598.5 506.328 L 598.5 529.422 L 591 533.752 L 591 510.658 Z " fill="rgb(116,116,116)"/><path d=" M 651 476.017 L 658.5 471.687 L 658.5 494.781 L 651 499.111 L 651 476.017 Z " fill="rgb(116,116,116)"/><path d=" M 621 493.338 L 628.5 489.008 L 628.5 512.102 L 621 516.432 L 621 493.338 Z " fill="rgb(116,116,116)"/><path d=" M 571 551.469 L 578.5 547.139 L 578.5 570.233 L 571 574.563 L 571 551.469 Z " fill="rgb(116,116,116)"/><path d=" M 631 516.828 L 638.5 512.498 L 638.5 535.592 L 631 539.922 L 631 516.828 Z " fill="rgb(116,116,116)"/><path d=" M 601 534.148 L 608.5 529.818 L 608.5 552.912 L 601 557.242 L 601 534.148 Z " fill="rgb(116,116,116)"/><path d=" M 661 499.507 L 668.5 495.177 L 668.5 518.271 L 661 522.601 L 661 499.507 Z " fill="rgb(116,116,116)"/><path d=" M 581 545.695 L 588.5 541.365 L 588.5 564.459 L 581 568.789 L 581 545.695 Z " fill="rgb(116,116,116)"/><path d=" M 641 511.054 L 648.5 506.724 L 648.5 529.818 L 641 534.148 L 641 511.054 Z " fill="rgb(116,116,116)"/><path d=" M 611 528.375 L 618.5 524.045 L 618.5 547.139 L 611 551.469 L 611 528.375 Z " fill="rgb(116,116,116)"/><path d=" M 591 539.922 L 598.5 535.592 L 598.5 558.686 L 591 563.016 L 591 539.922 Z " fill="rgb(116,116,116)"/><path d=" M 651 505.281 L 658.5 500.951 L 658.5 524.045 L 651 528.375 L 651 505.281 Z " fill="rgb(116,116,116)"/><path d=" M 621 522.601 L 628.5 518.271 L 628.5 541.365 L 621 545.695 L 621 522.601 Z " fill="rgb(116,116,116)"/><path d=" M 571 317.361 L 578.5 313.031 L 578.5 336.125 L 571 340.455 L 571 317.361 Z " fill="rgb(116,116,116)"/><path d=" M 631 282.72 L 638.5 278.39 L 638.5 301.484 L 631 305.814 L 631 282.72 Z " fill="rgb(116,116,116)"/><path d=" M 601 300.041 L 608.5 295.711 L 608.5 318.805 L 601 323.135 L 601 300.041 Z " fill="rgb(116,116,116)"/><path d=" M 661 265.4 L 668.5 261.07 L 668.5 284.164 L 661 288.494 L 661 265.4 Z " fill="rgb(116,116,116)"/><path d=" M 581 311.588 L 588.5 307.258 L 588.5 330.352 L 581 334.682 L 581 311.588 Z " fill="rgb(116,116,116)"/><path d=" M 641 276.947 L 648.5 272.617 L 648.5 295.711 L 641 300.041 L 641 276.947 Z " fill="rgb(116,116,116)"/><path d=" M 611 294.267 L 618.5 289.937 L 618.5 313.031 L 611 317.361 L 611 294.267 Z " fill="rgb(116,116,116)"/><path d=" M 591 305.814 L 598.5 301.484 L 598.5 324.578 L 591 328.908 L 591 305.814 Z " fill="rgb(116,116,116)"/><path d=" M 651 271.173 L 658.5 266.843 L 658.5 289.937 L 651 294.267 L 651 271.173 Z " fill="rgb(116,116,116)"/><path d=" M 621 288.494 L 628.5 284.164 L 628.5 307.258 L 621 311.588 L 621 288.494 Z " fill="rgb(116,116,116)"/><path d=" M 571 405.152 L 578.5 400.821 L 578.5 423.915 L 571 428.246 L 571 405.152 Z " fill="rgb(116,116,116)"/><path d=" M 631 370.511 L 638.5 366.18 L 638.5 389.274 L 631 393.605 L 631 370.511 Z " fill="rgb(116,116,116)"/><path d=" M 601 387.831 L 608.5 383.501 L 608.5 406.595 L 601 410.925 L 601 387.831 Z " fill="rgb(116,116,116)"/><path d=" M 661 353.19 L 668.5 348.86 L 668.5 371.954 L 661 376.284 L 661 353.19 Z " fill="rgb(116,116,116)"/><path d=" M 581 399.378 L 588.5 395.048 L 588.5 418.142 L 581 422.472 L 581 399.378 Z " fill="rgb(116,116,116)"/><path d=" M 641 364.737 L 648.5 360.407 L 648.5 383.501 L 641 387.831 L 641 364.737 Z " fill="rgb(116,116,116)"/><path d=" M 611 382.058 L 618.5 377.727 L 618.5 400.821 L 611 405.152 L 611 382.058 Z " fill="rgb(116,116,116)"/><path d=" M 591 393.605 L 598.5 389.274 L 598.5 412.368 L 591 416.699 L 591 393.605 Z " fill="rgb(116,116,116)"/><path d=" M 651 358.964 L 658.5 354.633 L 658.5 377.727 L 651 382.058 L 651 358.964 Z " fill="rgb(116,116,116)"/><path d=" M 621 376.284 L 628.5 371.954 L 628.5 395.048 L 621 399.378 L 621 376.284 Z " fill="rgb(116,116,116)"/><path d=" M 571 639.259 L 578.5 634.929 L 578.5 658.023 L 571 662.353 L 571 639.259 Z " fill="rgb(116,116,116)"/><path d=" M 631 604.618 L 638.5 600.288 L 638.5 623.382 L 631 627.712 L 631 604.618 Z " fill="rgb(116,116,116)"/><path d=" M 601 621.939 L 608.5 617.609 L 608.5 640.703 L 601 645.033 L 601 621.939 Z " fill="rgb(116,116,116)"/><path d=" M 661 587.298 L 668.5 582.968 L 668.5 606.062 L 661 610.392 L 661 587.298 Z " fill="rgb(116,116,116)"/><path d=" M 581 633.486 L 588.5 629.156 L 588.5 652.25 L 581 656.58 L 581 633.486 Z " fill="rgb(116,116,116)"/><path d=" M 641 598.845 L 648.5 594.515 L 648.5 617.609 L 641 621.939 L 641 598.845 Z " fill="rgb(116,116,116)"/><path d=" M 611 616.165 L 618.5 611.835 L 618.5 634.929 L 611 639.259 L 611 616.165 Z " fill="rgb(116,116,116)"/><path d=" M 591 627.712 L 598.5 623.382 L 598.5 646.476 L 591 650.806 L 591 627.712 Z " fill="rgb(116,116,116)"/><path d=" M 651 593.071 L 658.5 588.741 L 658.5 611.835 L 651 616.165 L 651 593.071 Z " fill="rgb(116,116,116)"/><path d=" M 621 610.392 L 628.5 606.062 L 628.5 629.156 L 621 633.486 L 621 610.392 Z " fill="rgb(116,116,116)"/><path d=" M 571 668.523 L 578.5 664.193 L 578.5 687.287 L 571 691.617 L 571 668.523 Z " fill="rgb(116,116,116)"/><path d=" M 631 633.882 L 638.5 629.552 L 638.5 652.646 L 631 656.976 L 631 633.882 Z " fill="rgb(116,116,116)"/><path d=" M 601 651.202 L 608.5 646.872 L 608.5 669.966 L 601 674.296 L 601 651.202 Z " fill="rgb(116,116,116)"/><path d=" M 661 616.561 L 668.5 612.231 L 668.5 635.325 L 661 639.655 L 661 616.561 Z " fill="rgb(116,116,116)"/><path d=" M 581 662.749 L 588.5 658.419 L 588.5 681.513 L 581 685.843 L 581 662.749 Z " fill="rgb(116,116,116)"/><path d=" M 641 628.108 L 648.5 623.778 L 648.5 646.872 L 641 651.202 L 641 628.108 Z " fill="rgb(116,116,116)"/><path d=" M 611 645.429 L 618.5 641.099 L 618.5 664.193 L 611 668.523 L 611 645.429 Z " fill="rgb(116,116,116)"/><path d=" M 591 656.976 L 598.5 652.646 L 598.5 675.74 L 591 680.07 L 591 656.976 Z " fill="rgb(116,116,116)"/><path d=" M 651 622.335 L 658.5 618.005 L 658.5 641.099 L 651 645.429 L 651 622.335 Z " fill="rgb(116,116,116)"/><path d=" M 621 639.655 L 628.5 635.325 L 628.5 658.419 L 621 662.749 L 621 639.655 Z " fill="rgb(116,116,116)"/><path d=" M 571 697.786 L 578.5 693.456 L 578.5 716.55 L 571 720.88 L 571 697.786 Z " fill="rgb(116,116,116)"/><path d=" M 631 663.145 L 638.5 658.815 L 638.5 681.909 L 631 686.239 L 631 663.145 Z " fill="rgb(116,116,116)"/><path d=" M 601 680.466 L 608.5 676.136 L 608.5 699.23 L 601 703.56 L 601 680.466 Z " fill="rgb(116,116,116)"/><path d=" M 661 645.825 L 668.5 641.495 L 668.5 664.589 L 661 668.919 L 661 645.825 Z " fill="rgb(116,116,116)"/><path d=" M 581 692.013 L 588.5 687.683 L 588.5 710.777 L 581 715.107 L 581 692.013 Z " fill="rgb(116,116,116)"/><path d=" M 641 657.372 L 648.5 653.042 L 648.5 676.136 L 641 680.466 L 641 657.372 Z " fill="rgb(116,116,116)"/><path d=" M 611 674.692 L 618.5 670.362 L 618.5 693.456 L 611 697.786 L 611 674.692 Z " fill="rgb(116,116,116)"/><path d=" M 591 686.239 L 598.5 681.909 L 598.5 705.003 L 591 709.333 L 591 686.239 Z " fill="rgb(116,116,116)"/><path d=" M 651 651.598 L 658.5 647.268 L 658.5 670.362 L 651 674.692 L 651 651.598 Z " fill="rgb(116,116,116)"/><path d=" M 621 668.919 L 628.5 664.589 L 628.5 687.683 L 621 692.013 L 621 668.919 Z " fill="rgb(116,116,116)"/><path d=" M 571 727.05 L 578.5 722.72 L 578.5 745.814 L 571 750.144 L 571 727.05 Z " fill="rgb(116,116,116)"/><path d=" M 631 692.409 L 638.5 688.079 L 638.5 711.173 L 631 715.503 L 631 692.409 Z " fill="rgb(116,116,116)"/><path d=" M 601 709.729 L 608.5 705.399 L 608.5 728.493 L 601 732.823 L 601 709.729 Z " fill="rgb(116,116,116)"/><path d=" M 661 675.088 L 668.5 670.758 L 668.5 693.852 L 661 698.182 L 661 675.088 Z " fill="rgb(116,116,116)"/><path d=" M 581 721.276 L 588.5 716.946 L 588.5 740.04 L 581 744.37 L 581 721.276 Z " fill="rgb(116,116,116)"/><path d=" M 641 686.635 L 648.5 682.305 L 648.5 705.399 L 641 709.729 L 641 686.635 Z " fill="rgb(116,116,116)"/><path d=" M 611 703.956 L 618.5 699.626 L 618.5 722.72 L 611 727.05 L 611 703.956 Z " fill="rgb(116,116,116)"/><path d=" M 591 715.503 L 598.5 711.173 L 598.5 734.267 L 591 738.597 L 591 715.503 Z " fill="rgb(116,116,116)"/><path d=" M 651 680.862 L 658.5 676.532 L 658.5 699.626 L 651 703.956 L 651 680.862 Z " fill="rgb(116,116,116)"/><path d=" M 621 698.182 L 628.5 693.852 L 628.5 716.946 L 621 721.276 L 621 698.182 Z " fill="rgb(116,116,116)"/><path d=" M 571 756.313 L 578.5 751.983 L 578.5 775.077 L 571 779.407 L 571 756.313 Z " fill="rgb(116,116,116)"/><path d=" M 631 721.672 L 638.5 717.342 L 638.5 740.436 L 631 744.766 L 631 721.672 Z " fill="rgb(116,116,116)"/><path d=" M 601 738.993 L 608.5 734.663 L 608.5 757.757 L 601 762.087 L 601 738.993 Z " fill="rgb(116,116,116)"/><path d=" M 661 704.352 L 668.5 700.022 L 668.5 723.116 L 661 727.446 L 661 704.352 Z " fill="rgb(116,116,116)"/><path d=" M 581 750.54 L 588.5 746.21 L 588.5 769.304 L 581 773.634 L 581 750.54 Z " fill="rgb(116,116,116)"/><path d=" M 641 715.899 L 648.5 711.569 L 648.5 734.663 L 641 738.993 L 641 715.899 Z " fill="rgb(116,116,116)"/><path d=" M 611 733.219 L 618.5 728.889 L 618.5 751.983 L 611 756.313 L 611 733.219 Z " fill="rgb(116,116,116)"/><path d=" M 591 744.766 L 598.5 740.436 L 598.5 763.53 L 591 767.86 L 591 744.766 Z " fill="rgb(116,116,116)"/><path d=" M 651 710.125 L 658.5 705.795 L 658.5 728.889 L 651 733.219 L 651 710.125 Z " fill="rgb(116,116,116)"/><path d=" M 621 727.446 L 628.5 723.116 L 628.5 746.21 L 621 750.54 L 621 727.446 Z " fill="rgb(116,116,116)"/><path d=" M 571 785.577 L 578.5 781.247 L 578.5 804.341 L 571 808.671 L 571 785.577 Z " fill="rgb(116,116,116)"/><path d=" M 631 750.936 L 638.5 746.606 L 638.5 769.7 L 631 774.03 L 631 750.936 Z " fill="rgb(116,116,116)"/><path d=" M 601 768.256 L 608.5 763.926 L 608.5 787.02 L 601 791.35 L 601 768.256 Z " fill="rgb(116,116,116)"/><path d=" M 661 733.615 L 668.5 729.285 L 668.5 752.379 L 661 756.709 L 661 733.615 Z " fill="rgb(116,116,116)"/><path d=" M 581 779.803 L 588.5 775.473 L 588.5 798.567 L 581 802.897 L 581 779.803 Z " fill="rgb(116,116,116)"/><path d=" M 641 745.162 L 648.5 740.832 L 648.5 763.926 L 641 768.256 L 641 745.162 Z " fill="rgb(116,116,116)"/><path d=" M 611 762.483 L 618.5 758.153 L 618.5 781.247 L 611 785.577 L 611 762.483 Z " fill="rgb(116,116,116)"/><path d=" M 591 774.03 L 598.5 769.7 L 598.5 792.794 L 591 797.124 L 591 774.03 Z " fill="rgb(116,116,116)"/><path d=" M 651 739.389 L 658.5 735.059 L 658.5 758.153 L 651 762.483 L 651 739.389 Z " fill="rgb(116,116,116)"/><path d=" M 621 756.709 L 628.5 752.379 L 628.5 775.473 L 621 779.803 L 621 756.709 Z " fill="rgb(116,116,116)"/><path d=" M 571 814.84 L 578.5 810.51 L 578.5 833.604 L 571 837.934 L 571 814.84 Z " fill="rgb(116,116,116)"/><path d=" M 631 780.199 L 638.5 775.869 L 638.5 798.963 L 631 803.293 L 631 780.199 Z " fill="rgb(116,116,116)"/><path d=" M 601 797.52 L 608.5 793.19 L 608.5 816.284 L 601 820.614 L 601 797.52 Z " fill="rgb(116,116,116)"/><path d=" M 661 762.879 L 668.5 758.549 L 668.5 781.643 L 661 785.973 L 661 762.879 Z " fill="rgb(116,116,116)"/><path d=" M 581 809.067 L 588.5 804.737 L 588.5 827.831 L 581 832.161 L 581 809.067 Z " fill="rgb(116,116,116)"/><path d=" M 641 774.426 L 648.5 770.096 L 648.5 793.19 L 641 797.52 L 641 774.426 Z " fill="rgb(116,116,116)"/><path d=" M 611 791.746 L 618.5 787.416 L 618.5 810.51 L 611 814.84 L 611 791.746 Z " fill="rgb(116,116,116)"/><path d=" M 591 803.293 L 598.5 798.963 L 598.5 822.057 L 591 826.387 L 591 803.293 Z " fill="rgb(116,116,116)"/><path d=" M 651 768.652 L 658.5 764.322 L 658.5 787.416 L 651 791.746 L 651 768.652 Z " fill="rgb(116,116,116)"/><path d=" M 621 785.973 L 628.5 781.643 L 628.5 804.737 L 621 809.067 L 621 785.973 Z " fill="rgb(116,116,116)"/></g></g></svg>